<?xml version="1.0" encoding="UTF-8"?>
<svg version="1.1" xmlns="http://www.w3.org/2000/svg" width="150" height="84">
<path d="M0 0 C49.5 0 99 0 150 0 C150 27.72 150 55.44 150 84 C100.5 84 51 84 0 84 C0 56.28 0 28.56 0 0 Z " fill="#FBFCFC" transform="translate(0,0)"/>
<path d="M0 0 C2.73611528 0.03499249 5.46910083 0.02039586 8.20532227 0.0012207 C9.96770567 0.00810427 11.73008095 0.01776306 13.49243164 0.03051758 C14.29868484 0.02555771 15.10493805 0.02059784 15.93562317 0.01548767 C21.19365656 0.12518481 24.18389849 1.15739113 28.37915039 4.59692383 C30.52087561 7.29735998 30.37834899 8.64260385 30.31665039 12.15942383 C29.37915039 15.59692383 29.37915039 15.59692383 27.16740417 17.26753235 C24.19966126 18.68250116 22.09520726 19.0841493 18.82958984 19.3046875 C17.19682854 19.42447212 17.19682854 19.42447212 15.53108215 19.54667664 C14.36332748 19.6186879 13.19557281 19.69069916 11.99243164 19.76489258 C10.7802446 19.84943192 9.56805756 19.93397125 8.31913757 20.02107239 C5.75500175 20.19757715 3.19042755 20.36780944 0.62548828 20.53222656 C-3.27726933 20.78243128 -7.17849586 21.0501722 -11.07983398 21.3215332 C-13.57650901 21.49118291 -16.07325207 21.65983481 -18.57006836 21.82739258 C-19.72770187 21.90547653 -20.88533539 21.98356049 -22.07804871 22.06401062 C-23.73445122 22.16961052 -23.73445122 22.16961052 -25.42431641 22.27734375 C-26.86063667 22.37036018 -26.86063667 22.37036018 -28.32597351 22.46525574 C-32.75428179 22.64221744 -37.18900692 22.59692383 -41.62084961 22.59692383 C-41.62084961 29.52692383 -41.62084961 36.45692383 -41.62084961 43.59692383 C-41.95084961 43.59692383 -42.28084961 43.59692383 -42.62084961 43.59692383 C-42.62084961 36.99692383 -42.62084961 30.39692383 -42.62084961 23.59692383 C-45.17834961 23.76192383 -47.73584961 23.92692383 -50.37084961 24.09692383 C-56.75862526 24.49569826 -63.09316538 24.67361262 -69.49584961 24.53442383 C-71.60590804 24.3533113 -71.60590804 24.3533113 -72.62084961 25.59692383 C-70.64084961 25.59692383 -68.66084961 25.59692383 -66.62084961 25.59692383 C-66.62084961 26.25692383 -66.62084961 26.91692383 -66.62084961 27.59692383 C-65.96858398 27.69489258 -65.31631836 27.79286133 -64.64428711 27.89379883 C-58.44689319 28.95411991 -53.45241638 30.06599418 -49.32397461 35.21411133 C-46.0296187 40.11497413 -44.01303805 45.42085536 -42.02709961 50.96020508 C-40.24788954 54.29622396 -39.0650283 55.03021202 -35.62084961 56.59692383 C-32.53617278 57.02816984 -29.48552723 57.01752848 -26.37475586 56.99536133 C-25.04165627 56.9996666 -25.04165627 56.9996666 -23.68162537 57.00405884 C-21.80646119 57.00609564 -19.93127559 57.00059266 -18.05615234 56.98803711 C-15.19637158 56.97199687 -12.33800811 56.98788887 -9.47827148 57.00708008 C-7.65209651 57.00509721 -5.82592241 57.00125262 -3.99975586 56.99536133 C-3.14958389 57.00143402 -2.29941193 57.00750671 -1.42347717 57.01376343 C3.58989272 56.95481621 7.01985853 56.34130387 11.37915039 53.59692383 C14.23168999 50.64273471 15.17095106 47.55873527 16.31665039 43.65942383 C18.71233759 36.21923301 21.61542151 32.62637933 28.37915039 28.59692383 C31.10363755 27.68876144 32.81502004 27.43402287 35.62915039 27.40942383 C36.35618164 27.39524414 37.08321289 27.38106445 37.83227539 27.36645508 C41.16484235 27.66802172 44.18949124 28.61279728 47.37915039 29.59692383 C45.24497106 20.09446055 42.88421992 11.31164848 38.37915039 2.59692383 C41.14868164 2.67504883 41.14868164 2.67504883 44.37915039 3.59692383 C45.98640536 5.93134464 47.00283079 7.77810403 48.06665039 10.34692383 C48.50980591 11.34997559 48.50980591 11.34997559 48.96191406 12.37329102 C51.2547604 17.77107327 52.70442785 23.2178841 53.77368164 28.98754883 C54.2673322 31.81082841 54.2673322 31.81082841 56.37915039 34.59692383 C56.95924366 41.38742744 57.51323519 49.44929595 54.37915039 55.59692383 C48.99602295 61.37487814 44.0092472 66.09182236 35.94165039 66.97192383 C31.46462182 66.50065766 28.5640649 64.78183834 25.37915039 61.59692383 C23.00250604 61.48071342 20.65450614 61.42894576 18.27661133 61.41992188 C17.53347183 61.41335068 16.79033234 61.40677948 16.02467346 61.40000916 C13.55428985 61.38022688 11.08396723 61.36860139 8.61352539 61.35864258 C7.35000118 61.35252929 7.35000118 61.35252929 6.06095123 61.3462925 C1.6007766 61.3254086 -2.85936707 61.31111818 -7.31958008 61.30175781 C-11.92771998 61.29070128 -16.53537592 61.25631706 -21.14334488 61.21658611 C-24.68470151 61.19043733 -28.22594271 61.18206743 -31.76738739 61.17847633 C-33.46585094 61.17360417 -35.16430912 61.16197222 -36.86267853 61.14343834 C-39.24241872 61.11908779 -41.62090577 61.12000414 -44.00073242 61.12695312 C-44.70119186 61.11414307 -45.40165131 61.10133301 -46.12333679 61.08813477 C-50.94385305 61.13936982 -53.12331462 62.38111567 -56.62084961 65.59692383 C-61.59339599 67.25443929 -65.23323323 67.26503542 -69.99584961 64.97192383 C-71.21242635 64.19298442 -72.42002967 63.39994128 -73.62084961 62.59692383 C-74.39170898 62.12641602 -75.16256836 61.6559082 -75.95678711 61.17114258 C-80.34578021 58.42269544 -83.40685997 56.43873295 -85.62084961 51.59692383 C-85.98413086 48.25708008 -85.98413086 48.25708008 -85.93334961 44.65942383 C-85.92948242 43.47477539 -85.92561523 42.29012695 -85.92163086 41.06958008 C-85.62222512 37.61280476 -84.85814166 34.82571384 -83.62084961 31.59692383 C-83.29084961 32.25692383 -82.96084961 32.91692383 -82.62084961 33.59692383 C-79.49887483 32.28796663 -79.49887483 32.28796663 -77.62084961 29.59692383 C-78.61084961 28.93692383 -79.60084961 28.27692383 -80.62084961 27.59692383 C-75.19193494 22.1930272 -69.75076049 17.77318709 -63.12084961 13.97192383 C-62.50967285 13.61743164 -61.89849609 13.26293945 -61.26879883 12.89770508 C-59.75658526 12.05998878 -58.19159004 11.31895774 -56.62084961 10.59692383 C-55.96084961 10.92692383 -55.30084961 11.25692383 -54.62084961 11.59692383 C-54.95084961 12.25692383 -55.28084961 12.91692383 -55.62084961 13.59692383 C-54.5419043 13.07743164 -53.46295898 12.55793945 -52.35131836 12.02270508 C-50.83737908 11.31745386 -49.3230329 10.6130757 -47.80834961 9.90942383 C-47.1090332 9.56975586 -46.4097168 9.23008789 -45.68920898 8.88012695 C-30.96023705 2.11617847 -16.09159183 -0.22809298 0 0 Z " fill="#222023" transform="translate(89.620849609375,15.403076171875)"/>
<path d="M0 0 C0.495 0.99 0.495 0.99 1 2 C3.26779653 2.59134542 3.26779653 2.59134542 6.0625 2.9375 C7.13371094 3.10378906 8.20492187 3.27007812 9.30859375 3.44140625 C11.23963921 3.73361736 13.17071134 4.02565627 15.10205078 4.31591797 C17.27956741 4.65148249 19.45199475 5.01148063 21.625 5.375 C22.32375244 5.47675537 23.02250488 5.57851074 23.74243164 5.68334961 C25.7265625 6.0234375 25.7265625 6.0234375 29 7 C30.4609375 9.1015625 30.4609375 9.1015625 31 11 C29.02 11 27.04 11 25 11 C25.39832031 11.77601562 25.79664063 12.55203125 26.20703125 13.3515625 C30.23417236 21.56261907 32.45588622 28.9655799 34 38 C32.865625 37.67 31.73125 37.34 30.5625 37 C24.7352437 35.56639181 19.44733866 35.10578011 13.75 37.1875 C6.91737975 41.69081789 3.90023135 46.84991615 1.6875 54.5625 C0.16566346 59.33736281 -1.85808172 61.23872115 -6 64 C-8.67149544 64.89049848 -10.26575591 65.1386203 -13.0090332 65.17700195 C-13.81029129 65.18983719 -14.61154938 65.20267242 -15.43708801 65.21589661 C-16.73086617 65.22697701 -16.73086617 65.22697701 -18.05078125 65.23828125 C-18.94234421 65.246353 -19.83390717 65.25442474 -20.75248718 65.26274109 C-22.63957786 65.27656906 -24.52669342 65.28729697 -26.41381836 65.29516602 C-29.291338 65.31237345 -32.16770681 65.35626988 -35.04492188 65.40039062 C-36.8801999 65.41051855 -38.71548768 65.41903434 -40.55078125 65.42578125 C-41.40722733 65.44328934 -42.2636734 65.46079742 -43.14607239 65.47883606 C-48.56362195 65.45928614 -51.77154798 64.71440014 -56 61 C-57.33618164 58.95703125 -57.33618164 58.95703125 -58.16015625 56.8125 C-58.47919922 56.03132813 -58.79824219 55.25015625 -59.12695312 54.4453125 C-59.59004883 53.23488281 -59.59004883 53.23488281 -60.0625 52 C-62.65202522 45.31528747 -64.66160198 41.28971007 -71.25 37.8125 C-75.11587551 36.67030951 -78.99261388 36.33176617 -83 36 C-82.01 35.505 -82.01 35.505 -81 35 C-81 34.34 -81 33.68 -81 33 C-82.98 33 -84.96 33 -87 33 C-86.67 32.34 -86.34 31.68 -86 31 C-85.12674072 31.00523682 -84.25348145 31.01047363 -83.35375977 31.01586914 C-80.12410727 31.03287751 -76.89447755 31.04543369 -73.66479492 31.05493164 C-72.26504772 31.0599708 -70.8653058 31.06680216 -69.46557617 31.07543945 C-67.45754223 31.0875232 -65.44947043 31.09269807 -63.44140625 31.09765625 C-62.23170166 31.10289307 -61.02199707 31.10812988 -59.77563477 31.11352539 C-57.09187983 31.31775285 -57.09187983 31.31775285 -56 30 C-53.96900714 29.76820508 -51.93060626 29.60109139 -49.89135742 29.45922852 C-47.92878242 29.31886925 -47.92878242 29.31886925 -45.92655945 29.17567444 C-45.22268286 29.12741076 -44.51880627 29.07914707 -43.79360008 29.02942085 C-41.59512649 28.87819484 -39.39719022 28.72066293 -37.19929504 28.56126404 C-30.94853426 28.10897403 -24.69705074 27.66724127 -18.44506836 27.23217773 C-14.62436944 26.96585804 -10.80433396 26.69129607 -6.9845829 26.411726 C-5.5283806 26.3068638 -4.0719425 26.20522433 -2.61528587 26.10687447 C-0.57516525 25.96900841 1.46395648 25.82072802 3.50317383 25.67016602 C4.66375809 25.58879898 5.82434235 25.50743195 7.02009583 25.42359924 C9.85173117 25.02107671 11.67040324 24.64251188 14 23 C15.09325298 19.13717281 15.38708914 16.91679007 13.8125 13.1875 C11.80556793 10.7653406 10.93253134 10.06983033 8 9 C5.07087546 8.77083403 2.23949302 8.64815436 -0.69140625 8.62890625 C-1.5507225 8.61987778 -2.41003876 8.6108493 -3.2953949 8.60154724 C-5.12194344 8.58703765 -6.94854404 8.57815624 -8.77514648 8.57446289 C-11.50145724 8.56276199 -14.22535232 8.51375936 -16.95117188 8.46289062 C-32.41734856 8.31876113 -47.07746105 10.94877016 -61.0625 17.8125 C-67.82686335 21 -67.82686335 21 -70 21 C-69.484375 18.72265625 -69.484375 18.72265625 -68 16 C-65.37592087 14.5591529 -63.02696564 13.47428628 -60.25 12.4375 C-59.10688354 11.99144409 -59.10688354 11.99144409 -57.94067383 11.53637695 C-51.07240939 8.91059158 -44.15249896 6.72526945 -37 5 C-36.11183594 4.77441406 -35.22367188 4.54882812 -34.30859375 4.31640625 C-23.44563889 2.02364285 -12.04165838 2.8258836 -1 3 C-0.67 2.01 -0.34 1.02 0 0 Z " fill="#D3EDF9" transform="translate(104,8)"/>
<path d="M0 0 C2.73611528 0.03499249 5.46910083 0.02039586 8.20532227 0.0012207 C9.96770567 0.00810427 11.73008095 0.01776306 13.49243164 0.03051758 C14.29868484 0.02555771 15.10493805 0.02059784 15.93562317 0.01548767 C21.19365656 0.12518481 24.18389849 1.15739113 28.37915039 4.59692383 C30.52087561 7.29735998 30.37834899 8.64260385 30.31665039 12.15942383 C29.37915039 15.59692383 29.37915039 15.59692383 27.16740417 17.26753235 C24.19966126 18.68250116 22.09520726 19.0841493 18.82958984 19.3046875 C17.19682854 19.42447212 17.19682854 19.42447212 15.53108215 19.54667664 C14.36332748 19.6186879 13.19557281 19.69069916 11.99243164 19.76489258 C10.7802446 19.84943192 9.56805756 19.93397125 8.31913757 20.02107239 C5.75500175 20.19757715 3.19042755 20.36780944 0.62548828 20.53222656 C-3.27726933 20.78243128 -7.17849586 21.0501722 -11.07983398 21.3215332 C-13.57650901 21.49118291 -16.07325207 21.65983481 -18.57006836 21.82739258 C-19.72770187 21.90547653 -20.88533539 21.98356049 -22.07804871 22.06401062 C-23.73445122 22.16961052 -23.73445122 22.16961052 -25.42431641 22.27734375 C-26.86063667 22.37036018 -26.86063667 22.37036018 -28.32597351 22.46525574 C-32.75428179 22.64221744 -37.18900692 22.59692383 -41.62084961 22.59692383 C-41.62084961 29.52692383 -41.62084961 36.45692383 -41.62084961 43.59692383 C-41.95084961 43.59692383 -42.28084961 43.59692383 -42.62084961 43.59692383 C-42.62084961 36.99692383 -42.62084961 30.39692383 -42.62084961 23.59692383 C-45.17834961 23.76192383 -47.73584961 23.92692383 -50.37084961 24.09692383 C-56.75862526 24.49569826 -63.09316538 24.67361262 -69.49584961 24.53442383 C-71.60590804 24.3533113 -71.60590804 24.3533113 -72.62084961 25.59692383 C-70.64084961 25.59692383 -68.66084961 25.59692383 -66.62084961 25.59692383 C-66.88256836 27.49926758 -66.88256836 27.49926758 -67.62084961 29.59692383 C-69.32788086 30.53833008 -69.32788086 30.53833008 -71.43334961 31.15942383 C-74.03776032 32.00284509 -75.6125319 32.59050731 -77.80834961 34.28442383 C-80.16866073 35.99361464 -81.77530447 35.83405259 -84.62084961 35.59692383 C-83.96084961 34.27692383 -83.30084961 32.95692383 -82.62084961 31.59692383 C-82.62084961 32.25692383 -82.62084961 32.91692383 -82.62084961 33.59692383 C-79.49887483 32.28796663 -79.49887483 32.28796663 -77.62084961 29.59692383 C-78.61084961 28.93692383 -79.60084961 28.27692383 -80.62084961 27.59692383 C-75.19193494 22.1930272 -69.75076049 17.77318709 -63.12084961 13.97192383 C-62.50967285 13.61743164 -61.89849609 13.26293945 -61.26879883 12.89770508 C-59.75658526 12.05998878 -58.19159004 11.31895774 -56.62084961 10.59692383 C-55.96084961 10.92692383 -55.30084961 11.25692383 -54.62084961 11.59692383 C-54.95084961 12.25692383 -55.28084961 12.91692383 -55.62084961 13.59692383 C-54.5419043 13.07743164 -53.46295898 12.55793945 -52.35131836 12.02270508 C-50.83737908 11.31745386 -49.3230329 10.6130757 -47.80834961 9.90942383 C-47.1090332 9.56975586 -46.4097168 9.23008789 -45.68920898 8.88012695 C-30.96023705 2.11617847 -16.09159183 -0.22809298 0 0 Z " fill="#354044" transform="translate(89.620849609375,15.403076171875)"/>
<path d="M0 0 C0.495 0.99 0.495 0.99 1 2 C3.26779653 2.59134542 3.26779653 2.59134542 6.0625 2.9375 C7.13371094 3.10378906 8.20492187 3.27007812 9.30859375 3.44140625 C11.23963921 3.73361736 13.17071134 4.02565627 15.10205078 4.31591797 C17.27956741 4.65148249 19.45199475 5.01148063 21.625 5.375 C22.32375244 5.47675537 23.02250488 5.57851074 23.74243164 5.68334961 C25.7265625 6.0234375 25.7265625 6.0234375 29 7 C30.4609375 9.1015625 30.4609375 9.1015625 31 11 C29.02 11 27.04 11 25 11 C25.39832031 11.77601562 25.79664063 12.55203125 26.20703125 13.3515625 C30.23417236 21.56261907 32.45588622 28.9655799 34 38 C32.865625 37.67 31.73125 37.34 30.5625 37 C24.7352437 35.56639181 19.44733866 35.10578011 13.75 37.1875 C6.91737975 41.69081789 3.90023135 46.84991615 1.6875 54.5625 C0.16566346 59.33736281 -1.85808172 61.23872115 -6 64 C-8.67149544 64.89049848 -10.26575591 65.1386203 -13.0090332 65.17700195 C-13.81029129 65.18983719 -14.61154938 65.20267242 -15.43708801 65.21589661 C-16.29960678 65.22328354 -17.16212555 65.23067047 -18.05078125 65.23828125 C-18.94234421 65.246353 -19.83390717 65.25442474 -20.75248718 65.26274109 C-22.63957786 65.27656906 -24.52669342 65.28729697 -26.41381836 65.29516602 C-29.291338 65.31237345 -32.16770681 65.35626988 -35.04492188 65.40039062 C-36.8801999 65.41051855 -38.71548768 65.41903434 -40.55078125 65.42578125 C-41.40722733 65.44328934 -42.2636734 65.46079742 -43.14607239 65.47883606 C-48.72703955 65.45869642 -51.66169393 64.55319971 -56 61 C-55.67 60.01 -55.34 59.02 -55 58 C-54.30616211 58.48823242 -53.61232422 58.97646484 -52.89746094 59.47949219 C-49.52013291 61.25182105 -47.43299218 61.36038626 -43.640625 61.328125 C-42.44308594 61.32296875 -41.24554688 61.3178125 -40.01171875 61.3125 C-38.77035156 61.291875 -37.52898437 61.27125 -36.25 61.25 C-34.36474609 61.24226563 -34.36474609 61.24226563 -32.44140625 61.234375 C-26.8481487 61.72578913 -26.8481487 61.72578913 -22 60 C-21.84213692 58.14825294 -21.74892644 56.2909089 -21.68359375 54.43359375 C-21.64169922 53.30888672 -21.59980469 52.18417969 -21.55664062 51.02539062 C-21.51732422 49.84138672 -21.47800781 48.65738281 -21.4375 47.4375 C-21.37272461 45.65569336 -21.37272461 45.65569336 -21.30664062 43.83789062 C-21.20016454 40.89205216 -21.09815159 37.9461257 -21 35 C-22.32 34.67 -23.64 34.34 -25 34 C-22.36 34 -19.72 34 -17 34 C-17.99 34.33 -18.98 34.66 -20 35 C-20 38.63 -20 42.26 -20 46 C-18.98679688 45.7834375 -17.97359375 45.566875 -16.9296875 45.34375 C-15.57818996 45.06218801 -14.22662375 44.7809555 -12.875 44.5 C-12.20984375 44.35691406 -11.5446875 44.21382812 -10.859375 44.06640625 C-6.83498634 43.23785564 -3.10360236 42.85387766 1 43 C1.66 43 2.32 43 3 43 C4.21856697 41.51795909 5.4350842 40.03408841 6.6328125 38.53515625 C8.49073698 36.44897248 10.50134413 35.21556231 13 34 C13.66 34 14.32 34 15 34 C15.08120751 31.10359882 15.14059421 28.20949088 15.1875 25.3125 C15.21263672 24.49587891 15.23777344 23.67925781 15.26367188 22.83789062 C15.32138272 18.08636451 15.21877535 14.78296519 12 11 C8.16839898 8.29660589 3.8116489 8.65847918 -0.69140625 8.62890625 C-1.5507225 8.61987778 -2.41003876 8.6108493 -3.2953949 8.60154724 C-5.12194344 8.58703765 -6.94854404 8.57815624 -8.77514648 8.57446289 C-11.50145724 8.56276199 -14.22535232 8.51375936 -16.95117188 8.46289062 C-32.41734856 8.31876113 -47.07746105 10.94877016 -61.0625 17.8125 C-67.82686335 21 -67.82686335 21 -70 21 C-69.484375 18.72265625 -69.484375 18.72265625 -68 16 C-65.37592087 14.5591529 -63.02696564 13.47428628 -60.25 12.4375 C-59.10688354 11.99144409 -59.10688354 11.99144409 -57.94067383 11.53637695 C-51.07240939 8.91059158 -44.15249896 6.72526945 -37 5 C-36.11183594 4.77441406 -35.22367188 4.54882812 -34.30859375 4.31640625 C-23.44563889 2.02364285 -12.04165838 2.8258836 -1 3 C-0.67 2.01 -0.34 1.02 0 0 Z " fill="#E6F4F8" transform="translate(104,8)"/>
<path d="M0 0 C2.76953125 0.078125 2.76953125 0.078125 6 1 C7.60725497 3.33442082 8.6236804 5.1811802 9.6875 7.75 C9.98293701 8.41870117 10.27837402 9.08740234 10.58276367 9.77636719 C12.87561001 15.17414944 14.32527746 20.62096027 15.39453125 26.390625 C15.8881818 29.21390459 15.8881818 29.21390459 18 32 C18.61279069 39.17325574 18.57908109 46.22991215 16 53 C15.67 52.34 15.34 51.68 15 51 C14.34 51 13.68 51 13 51 C12.505 51.825 12.01 52.65 11.5 53.5 C11.005 54.325 10.51 55.15 10 56 C9.34 56 8.68 56 8 56 C6.64567325 57.31200404 5.31266518 58.64631404 4 60 C0.78268449 61.60865775 -2.5107612 61.46696133 -6 61 C-9.41147754 59.29426123 -11.38347495 57.96499573 -13.4375 54.75 C-14.21873876 50.9306105 -14.13581319 47.74061143 -13 44 C-10.14986394 39.77076584 -7.51521956 38.6790288 -2.6875 37.6875 C-1.12790527 37.43933091 0.43398089 37.20373453 2 37 C-6.51261035 36.44285721 -6.51261035 36.44285721 -14 40 C-15.37231937 42.6454978 -16.14884885 45.11554332 -17 48 C-17.99 47.34 -18.98 46.68 -20 46 C-20 44.68 -20 43.36 -20 42 C-20.495 44.475 -20.495 44.475 -21 47 C-21.66 46.67 -22.32 46.34 -23 46 C-21.77451014 37.93371598 -19.45258654 32.62396577 -12.875 27.625 C-9.36318909 25.6400634 -6.72823047 24.84727474 -2.75 24.8125 C-1.65945312 24.79123047 -1.65945312 24.79123047 -0.546875 24.76953125 C2.78569195 25.07109789 5.81034085 26.01587346 9 27 C6.86582067 17.49753672 4.50506953 8.71472466 0 0 Z " fill="#0E255B" transform="translate(128,18)"/>
<path d="M0 0 C9.9 0 19.8 0 30 0 C30 6.6 30 13.2 30 20 C30.66 20 31.32 20 32 20 C32.495 20.99 32.495 20.99 33 22 C33.84304687 21.70222656 34.68609375 21.40445313 35.5546875 21.09765625 C45.41343304 17.95671805 55.69467836 16.55652575 66 16 C66.05386629 18.12472576 66.09273071 20.24983652 66.125 22.375 C66.14820312 23.55835937 66.17140625 24.74171875 66.1953125 25.9609375 C66 29 66 29 64 31 C59.5805253 31.4622022 55.12831676 31.32396313 50.6875 31.3125 C49.45064453 31.32861328 48.21378906 31.34472656 46.93945312 31.36132812 C45.74642578 31.36197266 44.55339844 31.36261719 43.32421875 31.36328125 C42.23197998 31.36626221 41.13974121 31.36924316 40.0144043 31.37231445 C36.6404762 30.95559457 34.80350734 29.85744256 32 28 C31.34 28 30.68 28 30 28 C29.55269531 26.89140625 29.10539062 25.7828125 28.64453125 24.640625 C28.03459373 23.17677496 27.42387528 21.71325014 26.8125 20.25 C26.52052734 19.52039063 26.22855469 18.79078125 25.92773438 18.0390625 C23.62337353 12.58788631 21.08326111 9.6272767 15.75 6.8125 C11.88412449 5.67030951 8.00738612 5.33176617 4 5 C4.66 4.67 5.32 4.34 6 4 C6 3.34 6 2.68 6 2 C4.02 2 2.04 2 0 2 C0 1.34 0 0.68 0 0 Z " fill="#BEE6F8" transform="translate(17,39)"/>
<path d="M0 0 C0.33 0 0.66 0 1 0 C1 3.63 1 7.26 1 11 C0.34 11 -0.32 11 -1 11 C-1 11.66 -1 12.32 -1 13 C-2.0725 13.70125 -3.145 14.4025 -4.25 15.125 C-9.87658937 19.00462412 -11.53521687 24.33284678 -13.375 30.6875 C-14.85763998 35.40425026 -16.91340622 37.27560415 -21 40 C-23.67149544 40.89049848 -25.26575591 41.1386203 -28.0090332 41.17700195 C-28.81029129 41.18983719 -29.61154938 41.20267242 -30.43708801 41.21589661 C-31.73086617 41.22697701 -31.73086617 41.22697701 -33.05078125 41.23828125 C-33.94234421 41.246353 -34.83390717 41.25442474 -35.75248718 41.26274109 C-37.63957786 41.27656906 -39.52669342 41.28729697 -41.41381836 41.29516602 C-44.291338 41.31237345 -47.16770681 41.35626988 -50.04492188 41.40039062 C-51.8801999 41.41051855 -53.71548768 41.41903434 -55.55078125 41.42578125 C-56.40722733 41.44328934 -57.2636734 41.46079742 -58.14607239 41.47883606 C-63.72703955 41.45869642 -66.66169393 40.55319971 -71 37 C-70.67 36.01 -70.34 35.02 -70 34 C-69.30616211 34.48823242 -68.61232422 34.97646484 -67.89746094 35.47949219 C-64.52013291 37.25182105 -62.43299218 37.36038626 -58.640625 37.328125 C-57.44308594 37.32296875 -56.24554688 37.3178125 -55.01171875 37.3125 C-53.77035156 37.291875 -52.52898437 37.27125 -51.25 37.25 C-49.36474609 37.24226563 -49.36474609 37.24226563 -47.44140625 37.234375 C-41.8481487 37.72578913 -41.8481487 37.72578913 -37 36 C-36.84213692 34.14825294 -36.74892644 32.2909089 -36.68359375 30.43359375 C-36.62075195 28.7465332 -36.62075195 28.7465332 -36.55664062 27.02539062 C-36.51732422 25.84138672 -36.47800781 24.65738281 -36.4375 23.4375 C-36.37272461 21.65569336 -36.37272461 21.65569336 -36.30664062 19.83789062 C-36.20016454 16.89205216 -36.09815159 13.9461257 -36 11 C-37.32 10.67 -38.64 10.34 -40 10 C-37.36 10 -34.72 10 -32 10 C-32.99 10.33 -33.98 10.66 -35 11 C-35 14.63 -35 18.26 -35 22 C-33.98679688 21.7834375 -32.97359375 21.566875 -31.9296875 21.34375 C-30.57818996 21.06218801 -29.22662375 20.7809555 -27.875 20.5 C-26.87726563 20.28537109 -26.87726563 20.28537109 -25.859375 20.06640625 C-21.83498634 19.23785564 -18.10360236 18.85387766 -14 19 C-13.34 19 -12.68 19 -12 19 C-10.78143303 17.51795909 -9.5649158 16.03408841 -8.3671875 14.53515625 C-6.50926302 12.44897248 -4.49865587 11.21556231 -2 10 C-1.34 10 -0.68 10 0 10 C0 6.7 0 3.4 0 0 Z " fill="#BEE5F9" transform="translate(119,32)"/>
<path d="M0 0 C-0.33 0.66 -0.66 1.32 -1 2 C-3.1796875 2.59765625 -3.1796875 2.59765625 -5.875 3.0625 C-8.7108844 3.56270702 -11.26067849 4.08689283 -14 5 C-16.44071394 10.00346357 -16.19235893 13.7195533 -15 19 C-13.10571954 21.38312703 -11.69988821 22.6500559 -9 24 C-2.24206016 24.34803696 -2.24206016 24.34803696 4 22 C4.495 20.515 4.495 20.515 5 19 C5.66 19 6.32 19 7 19 C7.66 16.36 8.32 13.72 9 11 C9.495 12.98 9.495 12.98 10 15 C10.66 15 11.32 15 12 15 C11.66388952 17.99138325 11.02746044 18.9734746 8.8203125 21.10546875 C7.48613281 22.13607422 7.48613281 22.13607422 6.125 23.1875 C5.24070312 23.88230469 4.35640625 24.57710937 3.4453125 25.29296875 C-0.68321546 28.17502421 -4.05020033 28.41947455 -9 28 C-11.60847629 26.50254139 -13.87028902 25.12971098 -16 23 C-18.40250532 22.87510302 -20.77772785 22.8139921 -23.18188477 22.79467773 C-23.93305573 22.78477814 -24.68422668 22.77487854 -25.4581604 22.76467896 C-27.95254312 22.73297454 -30.44694491 22.70827141 -32.94140625 22.68359375 C-34.66634123 22.66303193 -36.39127108 22.64203567 -38.11619568 22.62062073 C-42.66506814 22.56532029 -47.21398667 22.51594631 -51.76293945 22.46777344 C-56.40124633 22.41761646 -61.03948598 22.36190017 -65.67773438 22.30664062 C-74.78509888 22.19896161 -83.89252165 22.09753843 -93 22 C-91.515 16.555 -91.515 16.555 -90 11 C-88.35 10.67 -86.7 10.34 -85 10 C-84.4225 10.94875 -83.845 11.8975 -83.25 12.875 C-81.05370487 15.9254099 -80.33258026 16.70625978 -77 18 C-74.98725451 18.30434258 -74.98725451 18.30434258 -72.87744141 18.2746582 C-71.67566757 18.28895622 -71.67566757 18.28895622 -70.44961548 18.30354309 C-69.592258 18.30263168 -68.73490051 18.30172028 -67.8515625 18.30078125 C-66.96141449 18.30506638 -66.07126648 18.3093515 -65.15414429 18.31376648 C-63.27301889 18.31950319 -61.39187132 18.3200149 -59.51074219 18.31567383 C-56.64218995 18.31251891 -53.77467441 18.33596345 -50.90625 18.36132812 C-49.07552213 18.36360179 -47.2447915 18.3643043 -45.4140625 18.36328125 C-44.56075348 18.372491 -43.70744446 18.38170074 -42.82827759 18.39118958 C-36.36917276 18.34136535 -32.28449133 16.92104953 -27.25 12.6875 C-24.86395185 9.83749804 -23.91441108 7.57451604 -23 4 C-22.7834375 4.8971875 -22.7834375 4.8971875 -22.5625 5.8125 C-22.1127561 7.56150404 -21.57107659 9.28677023 -21 11 C-20.78085938 10.45730469 -20.56171875 9.91460937 -20.3359375 9.35546875 C-18.75751958 5.79440392 -17.54742069 3.42725518 -14.4375 1 C-9.5987053 -0.40764937 -5.00264441 -0.24034057 0 0 Z " fill="#010A3C" transform="translate(131,54)"/>
<path d="M0 0 C-0.22773256 2.12750156 -0.48290818 4.25208056 -0.75 6.375 C-0.88921875 7.55835938 -1.0284375 8.74171875 -1.171875 9.9609375 C-2 13 -2 13 -3.71508789 14.15258789 C-6.33771784 15.12525041 -8.59702803 15.39816972 -11.38671875 15.59765625 C-12.40701172 15.67693359 -13.42730469 15.75621094 -14.47851562 15.83789062 C-15.53748047 15.91201172 -16.59644531 15.98613281 -17.6875 16.0625 C-19.79586532 16.21608953 -21.90396178 16.37343235 -24.01171875 16.53515625 C-24.94459717 16.600979 -25.87747559 16.66680176 -26.83862305 16.73461914 C-28.97731183 16.77209099 -28.97731183 16.77209099 -30 18 C-31.85369611 18.08737645 -33.71067541 18.10698153 -35.56640625 18.09765625 C-36.69111328 18.09443359 -37.81582031 18.09121094 -38.97460938 18.08789062 C-40.15861328 18.07951172 -41.34261719 18.07113281 -42.5625 18.0625 C-43.75037109 18.05798828 -44.93824219 18.05347656 -46.16210938 18.04882812 C-49.10812226 18.03699675 -52.05403681 18.02051287 -55 18 C-50.56536143 14.02254067 -45.65517916 11.6877289 -40.3125 9.1875 C-39.0121582 8.55811523 -39.0121582 8.55811523 -37.68554688 7.91601562 C-36.85732422 7.52478516 -36.02910156 7.13355469 -35.17578125 6.73046875 C-34.42208252 6.37364014 -33.66838379 6.01681152 -32.8918457 5.64916992 C-32.26753662 5.43494385 -31.64322754 5.22071777 -31 5 C-30.34 5.33 -29.68 5.66 -29 6 C-29.5775 6.56589844 -30.155 7.13179687 -30.75 7.71484375 C-31.4925 8.44832031 -32.235 9.18179687 -33 9.9375 C-33.7425 10.66839844 -34.485 11.39929688 -35.25 12.15234375 C-37.11460992 13.69686153 -37.11460992 13.69686153 -37 15 C-35.68 15 -34.36 15 -33 15 C-32.73058594 14.42378906 -32.46117188 13.84757812 -32.18359375 13.25390625 C-29.65668206 8.4419325 -26.5276807 4.22151077 -21.55078125 1.81640625 C-14.44120028 -0.35279437 -7.37283316 -0.31648091 0 0 Z " fill="#83B7E4" transform="translate(82,19)"/>
<path d="M0 0 C5.88608176 6.43362425 5.88608176 6.43362425 6.25 11.4375 C6 15 6 15 4.68359375 16.5546875 C4.12800781 17.03164062 3.57242188 17.50859375 3 18 C2.49082031 18.45761719 1.98164063 18.91523437 1.45703125 19.38671875 C-1.63166042 21.82979316 -4.06452291 23.36336704 -8.0625 23.5625 C-12.50432653 22.92795335 -14.64623745 21.95450511 -18 19 C-20.31685604 15.37361663 -20.28753084 12.06129275 -19.5859375 7.9296875 C-18.52722401 4.44299107 -16.96664725 3.05848993 -14 1 C-9.38374123 -0.49393488 -4.67246059 -1.81597733 0 0 Z " fill="#77878D" transform="translate(134,56)"/>
<path d="M0 0 C3.8397465 3.62642725 4.80971798 6.76724449 5 12 C3.80893997 15.93049809 0.72395718 19.0102909 -2 22 C-5.72900316 23.24300105 -9.13349214 23.6711674 -13 23 C-16.02391552 21.26092412 -18.41748661 19.16502678 -20 16 C-20.67291882 11.19343698 -20.47307361 7.86730162 -18.125 3.5625 C-13.53377058 -1.1599074 -6.06662685 -1.7405926 0 0 Z " fill="#838F96" transform="translate(35,56)"/>
<path d="M0 0 C0 0.66 0 1.32 0 2 C1.65 2 3.3 2 5 2 C5 2.33 5 2.66 5 3 C3.92621094 3.12117188 2.85242188 3.24234375 1.74609375 3.3671875 C0.30986025 3.53615615 -1.12633572 3.70544404 -2.5625 3.875 C-3.26697266 3.95363281 -3.97144531 4.03226563 -4.69726562 4.11328125 C-11.82676352 4.9675068 -17.59131291 5.67638093 -22.375 11.5 C-23.04273438 12.2940625 -23.71046875 13.088125 -24.3984375 13.90625 C-26.02994427 15.9030483 -26.02994427 15.9030483 -27 18 C-29.32156597 18.40729228 -31.6568787 18.74438677 -34 19 C-33.2575 18.278125 -32.515 17.55625 -31.75 16.8125 C-29.30500164 14.31193349 -27.15884912 11.74469066 -25 9 C-28.10600335 10.45444451 -31.20947021 11.91422352 -34.3125 13.375 C-35.63411133 13.99375 -35.63411133 13.99375 -36.98242188 14.625 C-38.25375977 15.22441406 -38.25375977 15.22441406 -39.55078125 15.8359375 C-40.72120972 16.38580322 -40.72120972 16.38580322 -41.9152832 16.94677734 C-44.21246293 18.05504362 -44.21246293 18.05504362 -47 20 C-46.0925 19.95875 -45.185 19.9175 -44.25 19.875 C-38.74656086 19.85230541 -33.3986022 21.02946477 -28 22 C-28 28.93 -28 35.86 -28 43 C-28.33 43 -28.66 43 -29 43 C-29 36.4 -29 29.8 -29 23 C-31.5575 23.165 -34.115 23.33 -36.75 23.5 C-43.13777565 23.89877443 -49.47231577 24.07668879 -55.875 23.9375 C-57.98505843 23.75638748 -57.98505843 23.75638748 -59 25 C-57.02 25 -55.04 25 -53 25 C-53.26171875 26.90234375 -53.26171875 26.90234375 -54 29 C-55.70703125 29.94140625 -55.70703125 29.94140625 -57.8125 30.5625 C-60.41691072 31.40592126 -61.99168229 31.99358348 -64.1875 33.6875 C-66.54781112 35.39669081 -68.15445486 35.23712876 -71 35 C-70.34 33.68 -69.68 32.36 -69 31 C-69 31.66 -69 32.32 -69 33 C-65.87802522 31.6910428 -65.87802522 31.6910428 -64 29 C-64.99 28.34 -65.98 27.68 -67 27 C-61.57108533 21.59610337 -56.12991088 17.17626326 -49.5 13.375 C-48.88882324 13.02050781 -48.27764648 12.66601562 -47.64794922 12.30078125 C-46.13573565 11.46306496 -44.57074043 10.72203391 -43 10 C-42.34 10.33 -41.68 10.66 -41 11 C-41.33 11.66 -41.66 12.32 -42 13 C-40.92105469 12.48050781 -39.84210937 11.96101563 -38.73046875 11.42578125 C-30.54065634 7.58043506 -22.45724767 4.28145573 -13.6875 2 C-12.4977356 1.68929565 -12.4977356 1.68929565 -11.28393555 1.37231445 C-7.45024232 0.42779328 -3.97960224 -0.25418617 0 0 Z " fill="#5C7788" transform="translate(76,16)"/>
<path d="M0 0 C0.495 0.99 0.495 0.99 1 2 C3.40283455 2.62620975 3.40283455 2.62620975 6.3125 3 C7.92318359 3.24363281 7.92318359 3.24363281 9.56640625 3.4921875 C11.26603516 3.74355469 11.26603516 3.74355469 13 4 C15.25074983 4.37047292 17.50080016 4.74523023 19.75 5.125 C20.75546875 5.29257813 21.7609375 5.46015625 22.796875 5.6328125 C23.52390625 5.75398437 24.2509375 5.87515625 25 6 C22.09907498 7.93395001 21.10325263 8.30131941 17.8125 8.625 C16.554375 8.74875 15.29625 8.8725 14 9 C14 8.34 14 7.68 14 7 C13.34 7 12.68 7 12 7 C11.67 7.99 11.34 8.98 11 10 C10.01 9.67 9.02 9.34 8 9 C2.43565348 8.7177816 -3.1288729 8.68598161 -8.69970703 8.64990234 C-10.53805385 8.63355436 -12.37634301 8.60655565 -14.21435547 8.56787109 C-30.70697724 8.22333858 -46.10584589 10.47191028 -61.0625 17.8125 C-67.82686335 21 -67.82686335 21 -70 21 C-69.484375 18.72265625 -69.484375 18.72265625 -68 16 C-65.37592087 14.5591529 -63.02696564 13.47428628 -60.25 12.4375 C-59.10688354 11.99144409 -59.10688354 11.99144409 -57.94067383 11.53637695 C-51.07240939 8.91059158 -44.15249896 6.72526945 -37 5 C-36.11183594 4.77441406 -35.22367188 4.54882812 -34.30859375 4.31640625 C-23.44563889 2.02364285 -12.04165838 2.8258836 -1 3 C-0.67 2.01 -0.34 1.02 0 0 Z " fill="#B1BDC0" transform="translate(104,8)"/>
<path d="M0 0 C2.85442753 -0.05437005 5.70780076 -0.09384974 8.5625 -0.125 C9.36236328 -0.14175781 10.16222656 -0.15851562 10.98632812 -0.17578125 C16.64933268 -0.22200986 22.58245268 -0.26157652 26.9375 3.8125 C28.21453043 6.4416803 28.38010992 8.11116462 28 11 C23.18639045 15.81360955 11.64983105 14.05473234 5.125 14.0625 C3.43375 14.041875 1.7425 14.02125 0 14 C0 9.38 0 4.76 0 0 Z " fill="#78A7E4" transform="translate(89,18)"/>
<path d="M0 0 C2 2 2 2 2.1953125 4.3828125 C2.17210937 5.28773437 2.14890625 6.19265625 2.125 7.125 C2.10695312 8.03507812 2.08890625 8.94515625 2.0703125 9.8828125 C2.04710937 10.58148438 2.02390625 11.28015625 2 12 C-1.6875 13.15625 -1.6875 13.15625 -4.5 11.75 C-7 10 -7 10 -8.8203125 8.4140625 C-12.83593977 5.8089423 -17.38868608 6.53218554 -22 7 C-25.53932888 7.76760208 -25.53932888 7.76760208 -28 10 C-29.36783271 12.64691293 -30.14907192 15.11629928 -31 18 C-31.99 17.34 -32.98 16.68 -34 16 C-33.47609403 6.50209177 -33.47609403 6.50209177 -30.00390625 2.96875 C-20.65735823 -3.29297675 -10.63264163 -3.25612088 0 0 Z " fill="#032779" transform="translate(142,48)"/>
<path d="M0 0 C2.54083717 2.2254229 3.65616138 4.29391804 4.69921875 7.48828125 C4.88671875 10.86328125 4.88671875 10.86328125 4.69921875 13.48828125 C2.94921875 13.36328125 2.94921875 13.36328125 0.69921875 12.48828125 C-0.68202088 10.52106117 -2.01566251 8.51959797 -3.30078125 6.48828125 C-7.9528906 3.38687501 -12.86037247 3.60864994 -18.30078125 4.48828125 C-20.54990514 6.23239353 -21.6481087 8.10648846 -23.30078125 10.48828125 C-26.61328125 11.36328125 -26.61328125 11.36328125 -29.30078125 11.48828125 C-30.76140975 8.84089209 -31.30078125 7.59379791 -31.30078125 4.48828125 C-29.65078125 4.15828125 -28.00078125 3.82828125 -26.30078125 3.48828125 C-25.97078125 2.49828125 -25.64078125 1.50828125 -25.30078125 0.48828125 C-16.97135767 -4.43365086 -8.12363938 -5.66579957 0 0 Z " fill="#092A6B" transform="translate(38.30078125,50.51171875)"/>
<path d="M0 0 C-0.33 0.66 -0.66 1.32 -1 2 C-3.1796875 2.59765625 -3.1796875 2.59765625 -5.875 3.0625 C-8.7108844 3.56270702 -11.26067849 4.08689283 -14 5 C-16.44071394 10.00346357 -16.19235893 13.7195533 -15 19 C-13.10571954 21.38312703 -11.69988821 22.6500559 -9 24 C-2.24206016 24.34803696 -2.24206016 24.34803696 4 22 C4.495 20.515 4.495 20.515 5 19 C5.66 19 6.32 19 7 19 C7.66 16.36 8.32 13.72 9 11 C9.495 12.98 9.495 12.98 10 15 C10.66 15 11.32 15 12 15 C11.66388952 17.99138325 11.02746044 18.9734746 8.8203125 21.10546875 C7.93085938 21.79253906 7.04140625 22.47960937 6.125 23.1875 C5.24070313 23.88230469 4.35640625 24.57710937 3.4453125 25.29296875 C-0.68321546 28.17502421 -4.05020033 28.41947455 -9 28 C-14.68421053 24.94736842 -14.68421053 24.94736842 -16 21 C-16.66 21 -17.32 21 -18 21 C-18.33 18.36 -18.66 15.72 -19 13 C-19.66 13 -20.32 13 -21 13 C-21.33 13.99 -21.66 14.98 -22 16 C-23.31647119 16.69937532 -24.65022151 17.36729133 -26 18 C-26.33 18.66 -26.66 19.32 -27 20 C-28.98 20 -30.96 20 -33 20 C-33 19.01 -33 18.02 -33 17 C-30.6875 15 -30.6875 15 -28 13 C-24.89109495 10.46681811 -24.1025724 7.81659675 -23 4 C-22.855625 4.598125 -22.71125 5.19625 -22.5625 5.8125 C-22.1127561 7.56150404 -21.57107659 9.28677023 -21 11 C-20.67128906 10.18595703 -20.67128906 10.18595703 -20.3359375 9.35546875 C-18.75751958 5.79440392 -17.54742069 3.42725518 -14.4375 1 C-9.5987053 -0.40764937 -5.00264441 -0.24034057 0 0 Z " fill="#071C5C" transform="translate(131,54)"/>
<path d="M0 0 C9.9 0 19.8 0 30 0 C30.4375 9.6875 30.4375 9.6875 30.56811523 12.71362305 C30.6252771 13.91305542 30.6252771 13.91305542 30.68359375 15.13671875 C30.72025146 15.94842529 30.75690918 16.76013184 30.79467773 17.59643555 C31.01037431 20.12144485 31.45899452 22.52600697 32 25 C31.01 25 30.02 25 29 25 C28.56429687 24.03578125 28.12859375 23.0715625 27.6796875 22.078125 C27.07900275 20.80166991 26.4773907 19.5256509 25.875 18.25 C25.59140625 17.61578125 25.3078125 16.9815625 25.015625 16.328125 C22.82725964 11.76110164 20.63036851 9.38395211 16 7 C12.82172912 6.11205573 12.82172912 6.11205573 9.625 5.75 C8.03558594 5.52570312 8.03558594 5.52570312 6.4140625 5.296875 C5.61742187 5.19890625 4.82078125 5.1009375 4 5 C4.66 4.67 5.32 4.34 6 4 C6 3.34 6 2.68 6 2 C4.02 2 2.04 2 0 2 C0 1.34 0 0.68 0 0 Z " fill="#D5EDF9" transform="translate(17,39)"/>
<path d="M0 0 C2.74192622 1.62560729 5.03756639 3.47949934 7 6 C7 6.99 7 7.98 7 9 C6.34 9 5.68 9 5 9 C4.67 11.31 4.34 13.62 4 16 C2.0625 15.375 2.0625 15.375 0 14 C-1.40540541 8.81081081 -1.40540541 8.81081081 0 6 C-1.74627478 8.61941217 -2.38722388 10.03824877 -3 13 C-4.32 12.67 -5.64 12.34 -7 12 C-7.680625 12.99 -7.680625 12.99 -8.375 14 C-8.91125 14.66 -9.4475 15.32 -10 16 C-10.66 16 -11.32 16 -12 16 C-12.33 13.69 -12.66 11.38 -13 9 C-13.66 9 -14.32 9 -15 9 C-14.4568634 5.19804378 -12.84334437 3.49869657 -10 1 C-6.73479778 -0.63260111 -3.51491384 -0.68152728 0 0 Z " fill="#85939C" transform="translate(130,56)"/>
<path d="M0 0 C5.66176471 2.98529412 5.66176471 2.98529412 7 7 C6.01 7.495 6.01 7.495 5 8 C5 9.65 5 11.3 5 13 C3.0625 12.6875 3.0625 12.6875 1 12 C0.67 11.01 0.34 10.02 0 9 C0.66 8.34 1.32 7.68 2 7 C2.6425235 4.93125966 2.6425235 4.93125966 3 3 C2.34 3 1.68 3 1 3 C0.7834375 3.928125 0.7834375 3.928125 0.5625 4.875 C0 7 0 7 -1 9 C-1 10.32 -1 11.64 -1 13 C-2.65 13 -4.3 13 -6 13 C-6.33 12.01 -6.66 11.02 -7 10 C-7.33 11.65 -7.66 13.3 -8 15 C-9.32 15 -10.64 15 -12 15 C-12.33 14.34 -12.66 13.68 -13 13 C-13.66 13.66 -14.32 14.32 -15 15 C-15.66964286 7.23214286 -15.66964286 7.23214286 -12.625 3.5625 C-8.68316468 -0.2854821 -5.3919551 -0.74026842 0 0 Z " fill="#8D9AA4" transform="translate(30,56)"/>
<path d="M0 0 C2.64 0 5.28 0 8 0 C7.01 0.33 6.02 0.66 5 1 C5 9.58 5 18.16 5 27 C15.05210535 27.35954625 15.05210535 27.35954625 21 26 C20.1875 27.9375 20.1875 27.9375 19 30 C16.32850456 30.89049848 14.73424409 31.1386203 11.9909668 31.17700195 C11.18970871 31.18983719 10.38845062 31.20267242 9.56291199 31.21589661 C8.70039322 31.22328354 7.83787445 31.23067047 6.94921875 31.23828125 C6.05765579 31.246353 5.16609283 31.25442474 4.24751282 31.26274109 C2.36042214 31.27656906 0.47330658 31.28729697 -1.41381836 31.29516602 C-4.291338 31.31237345 -7.16770681 31.35626988 -10.04492188 31.40039062 C-11.8801999 31.41051855 -13.71548768 31.41903434 -15.55078125 31.42578125 C-16.40722733 31.44328934 -17.2636734 31.46079742 -18.14607239 31.47883606 C-23.72703955 31.45869642 -26.66169393 30.55319971 -31 27 C-30.505 25.515 -30.505 25.515 -30 24 C-28.95924316 24.73234863 -28.95924316 24.73234863 -27.89746094 25.47949219 C-24.52013291 27.25182105 -22.43299218 27.36038626 -18.640625 27.328125 C-17.44308594 27.32296875 -16.24554688 27.3178125 -15.01171875 27.3125 C-13.77035156 27.291875 -12.52898437 27.27125 -11.25 27.25 C-9.36474609 27.24226563 -9.36474609 27.24226563 -7.44140625 27.234375 C-1.8481487 27.72578913 -1.8481487 27.72578913 3 26 C3.15786308 24.14825294 3.25107356 22.2909089 3.31640625 20.43359375 C3.37924805 18.7465332 3.37924805 18.7465332 3.44335938 17.02539062 C3.48267578 15.84138672 3.52199219 14.65738281 3.5625 13.4375 C3.62727539 11.65569336 3.62727539 11.65569336 3.69335938 9.83789062 C3.79983546 6.89205216 3.90184841 3.9461257 4 1 C2.68 0.67 1.36 0.34 0 0 Z " fill="#88A5BB" transform="translate(79,42)"/>
<path d="M0 0 C1.5675 -0.020625 3.135 -0.04125 4.75 -0.0625 C6.07257813 -0.07990234 6.07257813 -0.07990234 7.421875 -0.09765625 C9.7818838 -0.00826198 11.74498524 0.33087179 14 1 C14 1.66 14 2.32 14 3 C14.66 3 15.32 3 16 3 C16.66 6.63 17.32 10.26 18 14 C16.9275 13.67 15.855 13.34 14.75 13 C9.20839078 11.58469692 3.67897871 11.82963064 -2 12 C-1.34 11.67 -0.68 11.34 0 11 C0 7.37 0 3.74 0 0 Z " fill="#D6EEFA" transform="translate(120,32)"/>
<path d="M0 0 C-0.25 3.375 -0.25 3.375 -1 7 C-5.36196574 10.024337 -10.47146635 9.32968782 -15.5625 9.3125 C-17.00012695 9.33666992 -17.00012695 9.33666992 -18.46679688 9.36132812 C-19.38654297 9.36197266 -20.30628906 9.36261719 -21.25390625 9.36328125 C-22.09252197 9.36626221 -22.9311377 9.36924316 -23.79516602 9.37231445 C-26.45085493 8.92386737 -27.32653732 8.05439697 -29 6 C-27.75108386 5.51801537 -26.50081192 5.03954323 -25.25 4.5625 C-24.55390625 4.29566406 -23.8578125 4.02882813 -23.140625 3.75390625 C-15.89749104 1.20294849 -7.66813665 -0.41449387 0 0 Z " fill="#74A7E7" transform="translate(81,25)"/>
<path d="M0 0 C1.50433594 0.01353516 1.50433594 0.01353516 3.0390625 0.02734375 C3.80992188 0.03894531 4.58078125 0.05054688 5.375 0.0625 C5.375 0.3925 5.375 0.7225 5.375 1.0625 C4.57835938 1.17207031 3.78171875 1.28164063 2.9609375 1.39453125 C-5.21306569 2.56830047 -5.21306569 2.56830047 -12.625 6.0625 C-12.955 6.7225 -13.285 7.3825 -13.625 8.0625 C-16.1875 8.6875 -16.1875 8.6875 -18.625 9.0625 C-17.965 11.0425 -17.305 13.0225 -16.625 15.0625 C-15.305 15.0625 -13.985 15.0625 -12.625 15.0625 C-12.63660156 15.82175781 -12.64820313 16.58101562 -12.66015625 17.36328125 C-12.66917969 18.35714844 -12.67820312 19.35101563 -12.6875 20.375 C-12.69910156 21.36113281 -12.71070313 22.34726563 -12.72265625 23.36328125 C-12.74829862 26.16213849 -12.74829862 26.16213849 -11.625 29.0625 C-15.20349992 28.76429167 -16.38726484 28.32004642 -18.875 25.625 C-21.71115673 21.47205621 -21.76034829 19.11246717 -21.75 14.0625 C-21.75257812 12.804375 -21.75515625 11.54625 -21.7578125 10.25 C-21.625 7.0625 -21.625 7.0625 -20.625 5.0625 C-18.29828146 4.37310191 -15.96432406 3.70783078 -13.625 3.0625 C-12.635 2.4025 -11.645 1.7425 -10.625 1.0625 C-9.635 1.0625 -8.645 1.0625 -7.625 1.0625 C-4.98041621 -0.25979189 -2.94738699 -0.03427194 0 0 Z " fill="#0C2970" transform="translate(25.625,45.9375)"/>
<path d="M0 0 C-1.50597677 4.25438437 -4.16747758 5.59420614 -8 7.75 C-9.0725 8.36359375 -10.145 8.9771875 -11.25 9.609375 C-14 11 -14 11 -16 11 C-16 11.66 -16 12.32 -16 13 C-14.02 13 -12.04 13 -10 13 C-10.26171875 14.90234375 -10.26171875 14.90234375 -11 17 C-12.70703125 17.94140625 -12.70703125 17.94140625 -14.8125 18.5625 C-17.41691072 19.40592126 -18.99168229 19.99358348 -21.1875 21.6875 C-23.54781112 23.39669081 -25.15445486 23.23712876 -28 23 C-27.34 21.68 -26.68 20.36 -26 19 C-26 19.66 -26 20.32 -26 21 C-22.87802522 19.6910428 -22.87802522 19.6910428 -21 17 C-21.99 16.34 -22.98 15.68 -24 15 C-8.33333333 0 -8.33333333 0 0 0 Z " fill="#C7D6DA" transform="translate(33,28)"/>
<path d="M0 0 C5.05367833 -0.07422923 10.1070384 -0.12863915 15.16113281 -0.16479492 C16.87993905 -0.17986933 18.59870691 -0.20033229 20.31738281 -0.22631836 C22.78980997 -0.26276165 25.261728 -0.27973958 27.734375 -0.29296875 C28.50118591 -0.30845261 29.26799683 -0.32393646 30.05804443 -0.33988953 C34.32234178 -0.34123073 36.91928048 -0.0771703 40 3 C37.74391211 3.7520293 36.28631931 4.0607344 33.9375 3.5625 C29.86959612 2.78353968 25.81903328 2.6364136 21.6875 2.4375 C20.85154297 2.39431641 20.01558594 2.35113281 19.15429688 2.30664062 C17.10303065 2.20114693 15.0515352 2.10012685 13 2 C13 6.62 13 11.24 13 16 C12.67 16 12.34 16 12 16 C12 13.69 12 11.38 12 9 C10.02 9 8.04 9 6 9 C5.67 7.02 5.34 5.04 5 3 C3.35 2.67 1.7 2.34 0 2 C0 1.34 0 0.68 0 0 Z " fill="#434B4B" transform="translate(76,16)"/>
<path d="M0 0 C2.76171875 0.0390625 2.76171875 0.0390625 6 1 C7.6116553 3.53389708 8.71008899 5.63552138 9.8125 8.375 C10.11091797 9.06078125 10.40933594 9.7465625 10.71679688 10.453125 C12.68127503 15.0117786 14.13448178 18.72075692 14.0625 23.6875 C14.05347656 24.49574219 14.04445312 25.30398437 14.03515625 26.13671875 C14.02355469 26.75160156 14.01195312 27.36648437 14 28 C12.35 27.67 10.7 27.34 9 27 C8.76925781 25.97261719 8.53851563 24.94523437 8.30078125 23.88671875 C6.33833056 15.44940476 4.00358303 7.74463602 0 0 Z " fill="#7D95A0" transform="translate(128,18)"/>
<path d="M0 0 C0.639375 0.495 1.27875 0.99 1.9375 1.5 C1.6075 2.82 1.2775 4.14 0.9375 5.5 C0.0196875 5.47679687 -0.898125 5.45359375 -1.84375 5.4296875 C-8.63073816 5.32987885 -14.5818285 5.42618512 -21.0625 7.5 C-20.73293582 4.45153135 -20.4930501 2.91570354 -18.25 0.75 C-12.74929606 -2.3932594 -5.65926132 -2.7718831 0 0 Z " fill="#0859AF" transform="translate(135.0625,47.5)"/>
<path d="M0 0 C2.39614126 -0.05425226 4.79103853 -0.09379027 7.1875 -0.125 C8.19780273 -0.15013672 8.19780273 -0.15013672 9.22851562 -0.17578125 C13.28807807 -0.21538674 16.34998815 0.19979998 20 2 C19.67 3.65 19.34 5.3 19 7 C12.73 7 6.46 7 0 7 C0 4.69 0 2.38 0 0 Z " fill="#94C2EC" transform="translate(89,18)"/>
<path d="M0 0 C4.18533449 -0.28999509 5.6315919 -0.11975598 9.0859375 2.54296875 C11.0859375 5.23046875 11.0859375 5.23046875 11.0859375 8.23046875 C10.1578125 7.87984375 9.2296875 7.52921875 8.2734375 7.16796875 C3.25553928 5.72109012 -1.83773876 6.22813731 -6.9140625 7.23046875 C-7.9040625 7.89046875 -8.8940625 8.55046875 -9.9140625 9.23046875 C-12.1015625 8.85546875 -12.1015625 8.85546875 -13.9140625 8.23046875 C-13.7890625 6.41796875 -13.7890625 6.41796875 -12.9140625 4.23046875 C-8.66349125 1.62216366 -4.87780016 0.58732696 0 0 Z " fill="#065BB2" transform="translate(25.9140625,46.76953125)"/>
<path d="M0 0 C0.66 0.33 1.32 0.66 2 1 C1.95875 2.051875 1.9175 3.10375 1.875 4.1875 C1.99456803 7.83432497 2.17995076 9.87991558 4 13 C7.5387948 16.0183838 10.58361267 16.41299248 15.06640625 16.2265625 C17.68152133 15.92014498 19.71636802 15.31481841 22 14 C22.33 13.01 22.66 12.02 23 11 C23.66 11 24.32 11 25 11 C25.66 8.36 26.32 5.72 27 3 C27.33 4.32 27.66 5.64 28 7 C28.66 7 29.32 7 30 7 C29.66388952 9.99138325 29.02746044 10.9734746 26.8203125 13.10546875 C25.48613281 14.13607422 25.48613281 14.13607422 24.125 15.1875 C22.79855469 16.22970703 22.79855469 16.22970703 21.4453125 17.29296875 C17.31678454 20.17502421 13.94979967 20.41947455 9 20 C3.31578947 16.94736842 3.31578947 16.94736842 2 13 C1.34 13 0.68 13 0 13 C-0.94738023 10.15785932 -1.13460559 8.32391609 -1.125 5.375 C-1.12757812 4.57835938 -1.13015625 3.78171875 -1.1328125 2.9609375 C-1 1 -1 1 0 0 Z " fill="#24262B" transform="translate(113,62)"/>
<path d="M0 0 C2.73366695 1.64020017 5.03681303 3.47853174 7 6 C7 6.99 7 7.98 7 9 C6.34 9 5.68 9 5 9 C4.67 11.31 4.34 13.62 4 16 C2.0625 15.375 2.0625 15.375 0 14 C-0.9375 11.125 -0.9375 11.125 -1 8 C0.4375 5.625 0.4375 5.625 2 4 C-0.97 3.67 -3.94 3.34 -7 3 C-7.33 3.99 -7.66 4.98 -8 6 C-9.65 5.67 -11.3 5.34 -13 5 C-13 4.34 -13 3.68 -13 3 C-9.07903037 -0.18578782 -4.90671169 -1.16650127 0 0 Z " fill="#92A1A7" transform="translate(130,56)"/>
<path d="M0 0 C5.09578422 3.45785358 7.98284367 9.39816576 9.75 15.1875 C9.42 16.1775 9.09 17.1675 8.75 18.1875 C8.09 17.8575 7.43 17.5275 6.75 17.1875 C5.67823557 13.90916173 4.81881567 10.80684103 4.4375 7.375 C4.210625 6.653125 3.98375 5.93125 3.75 5.1875 C1.42145537 3.98911791 1.42145537 3.98911791 -1.25 3.1875 C-1.85328125 2.68089844 -2.4565625 2.17429687 -3.078125 1.65234375 C-5.79988855 -0.18337807 -7.43204285 -0.18369756 -10.6875 -0.125 C-11.61433594 -0.12113281 -12.54117187 -0.11726563 -13.49609375 -0.11328125 C-16.39281444 0.20309817 -18.60881903 0.9843486 -21.25 2.1875 C-20.92 1.1975 -20.59 0.2075 -20.25 -0.8125 C-13.13805927 -4.10827741 -6.68298573 -3.75917948 0 0 Z M3.75 17.1875 C4.74 17.1875 5.73 17.1875 6.75 17.1875 C5.82325251 19.96774248 4.78167981 22.65719853 3.6875 25.375 C3.32527344 26.27605469 2.96304688 27.17710938 2.58984375 28.10546875 C2.31269531 28.79253906 2.03554688 29.47960937 1.75 30.1875 C0.76 30.1875 -0.23 30.1875 -1.25 30.1875 C-0.940625 29.48625 -0.63125 28.785 -0.3125 28.0625 C0.85724581 25.18776745 0.85724581 25.18776745 1.25 22 C1.75 19.1875 1.75 19.1875 3.75 17.1875 Z " fill="#11234E" transform="translate(36.25,46.8125)"/>
<path d="M0 0 C0 0.66 0 1.32 0 2 C1.65 2 3.3 2 5 2 C5 2.33 5 2.66 5 3 C3.92621094 3.12117188 2.85242188 3.24234375 1.74609375 3.3671875 C0.30986025 3.53615615 -1.12633572 3.70544404 -2.5625 3.875 C-3.61920898 3.99294922 -3.61920898 3.99294922 -4.69726562 4.11328125 C-11.82676352 4.9675068 -17.59131291 5.67638093 -22.375 11.5 C-23.04273438 12.2940625 -23.71046875 13.088125 -24.3984375 13.90625 C-26.02994427 15.9030483 -26.02994427 15.9030483 -27 18 C-29.32156597 18.40729228 -31.6568787 18.74438677 -34 19 C-33.319375 18.34 -32.63875 17.68 -31.9375 17 C-25.76039257 11.02832835 -25.76039257 11.02832835 -21 4 C-18.41216145 3.19056192 -15.88226179 2.5006256 -13.25 1.875 C-12.53328125 1.69324219 -11.8165625 1.51148437 -11.078125 1.32421875 C-7.31010126 0.40299236 -3.90961317 -0.23088267 0 0 Z " fill="#667378" transform="translate(76,16)"/>
<path d="M0 0 C0.99 0 1.98 0 3 0 C3.33 2.31 3.66 4.62 4 7 C7.22404978 5.33045181 7.22404978 5.33045181 7.6875 2.375 C7.8421875 1.199375 7.8421875 1.199375 8 0 C8.433125 0.61875 8.86625 1.2375 9.3125 1.875 C10.99740483 4.2197245 10.99740483 4.2197245 14 6 C13.195625 6.28875 12.39125 6.5775 11.5625 6.875 C8.8673532 7.73262568 8.8673532 7.73262568 8 10 C10.64 10 13.28 10 16 10 C16 9.34 16 8.68 16 8 C16.66 8 17.32 8 18 8 C18.33 9.32 18.66 10.64 19 12 C15.28753662 14.47497559 12.30406538 14.65903459 8 14 C4.48593506 12.24296753 2.5598446 10.9924518 0.625 7.5625 C-0.01549816 4.93645753 -0.15384014 2.6922024 0 0 Z " fill="#6E7A83" transform="translate(114,65)"/>
<path d="M0 0 C0.66 0 1.32 0 2 0 C2.38063221 2.3260857 2.71269945 4.66055264 3 7 C2 8 2 8 -0.24623108 8.12025452 C-1.23884445 8.11803391 -2.23145782 8.11581329 -3.25415039 8.11352539 C-4.37523697 8.11344986 -5.49632355 8.11337433 -6.65138245 8.11329651 C-8.48103798 8.10555458 -8.48103798 8.10555458 -10.34765625 8.09765625 C-11.58921982 8.0962413 -12.83078339 8.09482635 -14.10997009 8.09336853 C-17.41605491 8.08870591 -20.72207146 8.07971497 -24.02813721 8.06866455 C-27.3996115 8.05844827 -30.77109283 8.05387045 -34.14257812 8.04882812 C-40.76173775 8.03777395 -47.38086493 8.02101736 -54 8 C-54 7.67 -54 7.34 -54 7 C-52.46460571 6.96241577 -52.46460571 6.96241577 -50.89819336 6.92407227 C-47.07565258 6.82941206 -43.2532689 6.72933805 -39.4309082 6.62768555 C-37.78120619 6.58455714 -36.13146585 6.54286799 -34.48168945 6.50268555 C-32.10095711 6.44444353 -29.72041373 6.38090903 -27.33984375 6.31640625 C-26.61039047 6.29969376 -25.88093719 6.28298126 -25.12937927 6.26576233 C-20.67838858 6.13897527 -16.39698627 5.70886583 -12 5 C-12 5.66 -12 6.32 -12 7 C-10.02 7 -8.04 7 -6 7 C-5.67 6.01 -5.34 5.02 -5 4 C-3.68352881 3.30062468 -2.34977849 2.63270867 -1 2 C-0.67 1.34 -0.34 0.68 0 0 Z " fill="#04124E" transform="translate(110,67)"/>
<path d="M0 0 C0.66 0.33 1.32 0.66 2 1 C-0.66666667 3.66666667 -3.33333333 6.33333333 -6 9 C-6.63421875 9.85078125 -6.63421875 9.85078125 -7.28125 10.71875 C-10.08630752 12.80979288 -13.31190643 12.57718648 -16.6875 12.6875 C-17.38939453 12.72166016 -18.09128906 12.75582031 -18.81445312 12.79101562 C-20.54241387 12.87329947 -22.27118072 12.9383324 -24 13 C-19.56536143 9.02254067 -14.65517916 6.6877289 -9.3125 4.1875 C-8.44560547 3.76791016 -7.57871094 3.34832031 -6.68554688 2.91601562 C-5.85732422 2.52478516 -5.02910156 2.13355469 -4.17578125 1.73046875 C-3.42208252 1.37364014 -2.66838379 1.01681152 -1.8918457 0.64916992 C-1.26753662 0.43494385 -0.64322754 0.22071777 0 0 Z " fill="#84ACDF" transform="translate(51,24)"/>
<path d="M0 0 C2.05615234 -0.35644531 2.05615234 -0.35644531 4.5859375 -0.328125 C5.51196777 -0.32361328 6.43799805 -0.31910156 7.39208984 -0.31445312 C8.3764502 -0.29318359 9.36081055 -0.27191406 10.375 -0.25 C11.86507568 -0.23356445 11.86507568 -0.23356445 13.38525391 -0.21679688 C20.28927646 -0.11306177 27.13910288 0.18942988 34 1 C34 1.66 34 2.32 34 3 C30.92125123 4.53937439 27.73263303 4.00296786 24.3671875 3.87890625 C23.23943405 3.84348976 23.23943405 3.84348976 22.08889771 3.80735779 C19.68407434 3.7306938 17.27957082 3.64668156 14.875 3.5625 C13.24610948 3.50928203 11.61720328 3.45654161 9.98828125 3.40429688 C5.9919844 3.27507502 1.99595908 3.13926173 -2 3 C-1.34 2.01 -0.68 1.02 0 0 Z " fill="#E4F4F9" transform="translate(81,12)"/>
<path d="M0 0 C0.33 1.32 0.66 2.64 1 4 C2.175625 3.505 3.35125 3.01 4.5625 2.5 C8.51626579 1.01908419 11.75165561 0.67937023 16 1 C16.886875 1.061875 17.77375 1.12375 18.6875 1.1875 C21.88640907 2.31144102 23.10679522 4.26537087 25 7 C24.67 7.66 24.34 8.32 24 9 C23.236875 8.175 22.47375 7.35 21.6875 6.5 C17.90515751 3.33756638 14.40744295 3.39633462 9.625 3.65625 C6.04161534 4.12550275 3.84664387 4.7226849 1 7 C-0.36783271 9.64691293 -1.14907192 12.11629928 -2 15 C-2.99 14.34 -3.98 13.68 -5 13 C-4.74500159 11.20601116 -4.47046186 9.41479125 -4.1875 7.625 C-4.03667969 6.62726562 -3.88585937 5.62953125 -3.73046875 4.6015625 C-3 2 -3 2 0 0 Z " fill="#082C71" transform="translate(113,51)"/>
<path d="M0 0 C0.99 1.485 0.99 1.485 2 3 C4.54045287 6.53678072 4.54045287 6.53678072 8 9 C8.6328125 11.28515625 8.6328125 11.28515625 9.125 14.0625 C9.29257813 14.98160156 9.46015625 15.90070313 9.6328125 16.84765625 C9.75398437 17.55792969 9.87515625 18.26820312 10 19 C5.28125 18.3046875 5.28125 18.3046875 2.75 15.5625 C0.17490477 11.79182485 -0.11534217 9.91942636 -0.0625 5.375 C-0.05347656 4.37210938 -0.04445312 3.36921875 -0.03515625 2.3359375 C-0.02355469 1.56507812 -0.01195312 0.79421875 0 0 Z " fill="#051350" transform="translate(4,56)"/>
<path d="M0 0 C5.27388024 -0.50227431 7.91015695 0.67105798 12 4 C12.33 4.99 12.66 5.98 13 7 C12.01 7.495 12.01 7.495 11 8 C11 9.65 11 11.3 11 13 C9.0625 12.6875 9.0625 12.6875 7 12 C6.67 11.01 6.34 10.02 6 9 C6.66 8.34 7.32 7.68 8 7 C8.6425235 4.93125966 8.6425235 4.93125966 9 3 C8.34 3 7.68 3 7 3 C6.87625 3.639375 6.7525 4.27875 6.625 4.9375 C6.41875 5.618125 6.2125 6.29875 6 7 C5.01 7.495 5.01 7.495 4 8 C1.375 7.0625 1.375 7.0625 -1 6 C-0.67 4.02 -0.34 2.04 0 0 Z " fill="#9FACB4" transform="translate(24,56)"/>
<path d="M0 0 C2 3 2 3 3 5 C3.99 5 4.98 5 6 5 C6.33 6.32 6.66 7.64 7 9 C11.79308342 9.46522293 11.79308342 9.46522293 15.9375 7.5 C16.4634375 6.7575 16.4634375 6.7575 17 6 C17.33 7.65 17.66 9.3 18 11 C14.30536161 13.46309226 10.28704359 13.82284906 6 13 C2.47620234 11.02970454 0.29931115 8.89793345 -1 5 C-0.5625 2.3125 -0.5625 2.3125 0 0 Z " fill="#6A767F" transform="translate(16,66)"/>
<path d="M0 0 C3.48824341 0.2583884 4.24214247 1.26466736 6.6875 3.9375 C9.98530171 8.30485902 10.38609932 10.49808476 10 16 C8.75 18 8.75 18 7 19 C5.68 18.67 4.36 18.34 3 18 C3.66 15.36 4.32 12.72 5 10 C5.66 10 6.32 10 7 10 C5.06143438 6.4136536 3.2775413 4.37339198 0 2 C0 1.34 0 0.68 0 0 Z " fill="#6F767E" transform="translate(130,55)"/>
<path d="M0 0 C1.09054687 0.02320313 2.18109375 0.04640625 3.3046875 0.0703125 C4.40039062 0.08835938 5.49609375 0.10640625 6.625 0.125 C7.46804687 0.14820313 8.31109375 0.17140625 9.1796875 0.1953125 C8.91796875 2.09765625 8.91796875 2.09765625 8.1796875 4.1953125 C6.47265625 5.13671875 6.47265625 5.13671875 4.3671875 5.7578125 C1.76277678 6.60123376 0.18800521 7.18889598 -2.0078125 8.8828125 C-4.36812362 10.59200331 -5.97476736 10.43244126 -8.8203125 10.1953125 C-8.1603125 8.8753125 -7.5003125 7.5553125 -6.8203125 6.1953125 C-6.8203125 6.8553125 -6.8203125 7.5153125 -6.8203125 8.1953125 C-3.69833772 6.8863553 -3.69833772 6.8863553 -1.8203125 4.1953125 C-2.8103125 3.5353125 -3.8003125 2.8753125 -4.8203125 2.1953125 C-2.8203125 0.1953125 -2.8203125 0.1953125 0 0 Z " fill="#8393A1" transform="translate(13.8203125,40.8046875)"/>
<path d="M0 0 C0.66 0.33 1.32 0.66 2 1 C2.3690205 15.78132118 2.3690205 15.78132118 0 22 C-0.33 21.34 -0.66 20.68 -1 20 C-1.66 20 -2.32 20 -3 20 C-3.99 17.03 -4.98 14.06 -6 11 C-4.35 11 -2.7 11 -1 11 C-0.67 7.37 -0.34 3.74 0 0 Z " fill="#122557" transform="translate(144,49)"/>
<path d="M0 0 C2.6875 -0.125 2.6875 -0.125 6 1 C9.34400729 5.68333837 11.35455525 10.20197879 11 16 C10.01 15.67 9.02 15.34 8 15 C7.3125 12.9375 7.3125 12.9375 7 11 C6.34 11 5.68 11 5 11 C3.35 7.37 1.7 3.74 0 0 Z " fill="#728590" transform="translate(128,18)"/>
<path d="M0 0 C-0.804375 0.61875 -1.60875 1.2375 -2.4375 1.875 C-5.03874519 3.74164041 -5.03874519 3.74164041 -6 6 C-8.75078884 6.91692961 -10.35948913 7.10886083 -13.1875 7.0625 C-15.0746875 7.0315625 -15.0746875 7.0315625 -17 7 C-15.63016497 3.83884224 -15.0109362 3.0072908 -12 1 C-7.98943724 -0.11404521 -4.14363981 -0.08124784 0 0 Z " fill="#A6C9EB" transform="translate(72,20)"/>
<path d="M0 0 C-7.69595638 0.68300088 -15.33838529 1.10481283 -23.0625 1.125 C-24.13262329 1.13176758 -24.13262329 1.13176758 -25.22436523 1.13867188 C-28.94149171 1.1281031 -32.38630022 0.88757538 -36 0 C-36 -0.33 -36 -0.66 -36 -1 C-34.85660156 -0.98839844 -33.71320312 -0.97679687 -32.53515625 -0.96484375 C-31.04427246 -0.95546712 -29.55338691 -0.94636679 -28.0625 -0.9375 C-27.30775391 -0.92912109 -26.55300781 -0.92074219 -25.77539062 -0.91210938 C-23.85005687 -0.90347559 -21.92464419 -0.94775667 -20 -1 C-19.67 -1.33 -19.34 -1.66 -19 -2 C-12.34950965 -3.16675269 -5.85816826 -3.90544551 0 0 Z " fill="#425B6C" transform="translate(72,37)"/>
<path d="M0 0 C0.125 2.375 0.125 2.375 0 5 C-2 7 -2 7 -5.375 7.25 C-8.63523324 7.02515633 -10.30632641 6.7239511 -13 5 C-13 4.01 -13 3.02 -13 2 C-11.02099824 1.66568899 -9.04179393 1.33257681 -7.0625 1 C-5.40927734 0.7215625 -5.40927734 0.7215625 -3.72265625 0.4375 C-1 0 -1 0 0 0 Z " fill="#5793D1" transform="translate(117,24)"/>
<path d="M0 0 C0.33 0.66 0.66 1.32 1 2 C3.40283455 2.62620975 3.40283455 2.62620975 6.3125 3 C7.92318359 3.24363281 7.92318359 3.24363281 9.56640625 3.4921875 C11.26603516 3.74355469 11.26603516 3.74355469 13 4 C15.25074983 4.37047292 17.50080016 4.74523023 19.75 5.125 C20.75546875 5.29257813 21.7609375 5.46015625 22.796875 5.6328125 C23.88742188 5.81457031 23.88742188 5.81457031 25 6 C22.09907498 7.93395001 21.10325263 8.30131941 17.8125 8.625 C16.554375 8.74875 15.29625 8.8725 14 9 C14 8.34 14 7.68 14 7 C13.34 7 12.68 7 12 7 C11.67 7.99 11.34 8.98 11 10 C10.01 9.34 9.02 8.68 8 8 C8.99 7.67 9.98 7.34 11 7 C11 6.34 11 5.68 11 5 C7.04 5 3.08 5 -1 5 C-0.67 3.35 -0.34 1.7 0 0 Z " fill="#C7D6DA" transform="translate(104,8)"/>
<path d="M0 0 C0.33 0 0.66 0 1 0 C1 3.63 1 7.26 1 11 C0.34 11 -0.32 11 -1 11 C-1 11.66 -1 12.32 -1 13 C-2.0725 13.70125 -3.145 14.4025 -4.25 15.125 C-8.45731902 17.96686051 -10.15019085 21.36973236 -12 26 C-12.66 26 -13.32 26 -14 26 C-14.33 26.99 -14.66 27.98 -15 29 C-14.73016717 22.52401204 -12.4133228 18.69871088 -8 14 C-3.23809524 10 -3.23809524 10 0 10 C0 6.7 0 3.4 0 0 Z " fill="#8DA5AF" transform="translate(119,32)"/>
<path d="M0 0 C1.98 0 3.96 0 6 0 C7.00109515 3.31070838 7.10356134 6.30084769 7.0625 9.75 C7.05347656 10.73484375 7.04445313 11.7196875 7.03515625 12.734375 C7.02355469 13.48203125 7.01195313 14.2296875 7 15 C6.67 15 6.34 15 6 15 C6 12.69 6 10.38 6 8 C4.02 8 2.04 8 0 8 C-0.79953138 4.71303767 -1.09658936 3.28976808 0 0 Z " fill="#525C5D" transform="translate(82,17)"/>
<path d="M0 0 C0.33 0 0.66 0 1 0 C1.66 2.64 2.32 5.28 3 8 C-1.25502089 8 -5.35942056 7.31190426 -9.5625 6.6875 C-10.43841797 6.56955078 -11.31433594 6.45160156 -12.21679688 6.33007812 C-13.05404297 6.20439453 -13.89128906 6.07871094 -14.75390625 5.94921875 C-15.90354858 5.78425903 -15.90354858 5.78425903 -17.07641602 5.6159668 C-19 5 -19 5 -21 2 C-13.52605426 1.62630271 -7.17859349 2.95938459 0 5 C0 3.35 0 1.7 0 0 Z " fill="#122C68" transform="translate(142,41)"/>
<path d="M0 0 C-3.35981024 2.7886425 -7.02047629 4.53497514 -11 6.25 C-11.61617187 6.53101563 -12.23234375 6.81203125 -12.8671875 7.1015625 C-15.56425353 8.27067696 -17.48420385 9.0694341 -20.4375 8.671875 C-20.953125 8.45015625 -21.46875 8.2284375 -22 8 C-22 7.34 -22 6.68 -22 6 C-22.66 5.67 -23.32 5.34 -24 5 C-22.68 4.67 -21.36 4.34 -20 4 C-20.33 4.99 -20.66 5.98 -21 7 C-20.47043701 6.75241943 -19.94087402 6.50483887 -19.39526367 6.24975586 C-16.99724311 5.13551612 -14.59258941 4.03639288 -12.1875 2.9375 C-11.35412109 2.54755859 -10.52074219 2.15761719 -9.66210938 1.75585938 C-8.45844727 1.20961914 -8.45844727 1.20961914 -7.23046875 0.65234375 C-6.49207764 0.31195068 -5.75368652 -0.02844238 -4.99291992 -0.37915039 C-3 -1 -3 -1 0 0 Z " fill="#728690" transform="translate(55,22)"/>
<path d="M0 0 C3.96 0 7.92 0 12 0 C12 0.99 12 1.98 12 3 C13.32 3.33 14.64 3.66 16 4 C16 4.66 16 5.32 16 6 C12.7 6.33 9.4 6.66 6 7 C5.67 5.02 5.34 3.04 5 1 C3.35 1 1.7 1 0 1 C0 0.67 0 0.34 0 0 Z " fill="#C1D7E1" transform="translate(72,36)"/>
<path d="M0 0 C3.36187774 0.28015648 4.76318238 0.77633891 7.25 3.125 C9.28813505 6.47336473 9.69589219 9.12262548 10 13 C9.01 12.34 8.02 11.68 7 11 C6.67 13.31 6.34 15.62 6 18 C5.34 18 4.68 18 4 18 C4 14.37 4 10.74 4 7 C4.66 7 5.32 7 6 7 C3.28395285 4.12579877 3.28395285 4.12579877 0 2 C0 1.34 0 0.68 0 0 Z " fill="#6A747C" transform="translate(30,55)"/>
<path d="M0 0 C3 1 3 1 4.25 2.625 C5.31881981 6.00959607 4.76130536 8.57412586 4 12 C2 14 2 14 -0.1640625 14.1953125 C-1.38222656 14.16050781 -1.38222656 14.16050781 -2.625 14.125 C-3.44226563 14.10695313 -4.25953125 14.08890625 -5.1015625 14.0703125 C-5.72804688 14.04710937 -6.35453125 14.02390625 -7 14 C-6.67 13.34 -6.34 12.68 -6 12 C-3.6859378 11.26924352 -1.35171131 10.59861742 1 10 C0.835 8.906875 0.67 7.81375 0.5 6.6875 C0 3 0 3 0 0 Z " fill="#303330" transform="translate(115,19)"/>
<path d="M0 0 C2.578125 0.350625 5.15625 0.70125 7.8125 1.0625 C7.8125 7.9925 7.8125 14.9225 7.8125 22.0625 C7.4825 22.0625 7.1525 22.0625 6.8125 22.0625 C6.8125 15.4625 6.8125 8.8625 6.8125 2.0625 C1.63675198 2.14153295 1.63675198 2.14153295 -3.53857422 2.24267578 C-5.42245049 2.25727217 -7.30619312 2.16193482 -9.1875 2.0625 C-9.8475 1.4025 -10.5075 0.7425 -11.1875 0.0625 C-7.28069519 -1.23976827 -3.98223674 -0.55947468 0 0 Z " fill="#708B9A" transform="translate(40.1875,36.9375)"/>
<path d="M0 0 C1.6266848 0.28211877 3.25132896 0.57602375 4.875 0.875 C5.77992187 1.03742187 6.68484375 1.19984375 7.6171875 1.3671875 C10 2 10 2 12 4 C12 4.99 12 5.98 12 7 C7.32798795 8.20568053 2.78503708 8.09382426 -2 8 C-2 7.67 -2 7.34 -2 7 C-0.02 6.67 1.96 6.34 4 6 C4 5.01 4 4.02 4 3 C2.05990478 1.29467677 2.05990478 1.29467677 0 0 Z " fill="#6DAFE3" transform="translate(104,18)"/>
<path d="M0 0 C3.63 0 7.26 0 11 0 C9.68 0.99 8.36 1.98 7 3 C7 4.32 7 5.64 7 7 C4.69 7 2.38 7 0 7 C0 4.69 0 2.38 0 0 Z " fill="#BED7F5" transform="translate(89,18)"/>
<path d="M0 0 C-2.42494864 2.42494864 -3.54351364 2.36269991 -6.875 2.8125 C-10.40268559 3.4742592 -11.77180271 3.80519744 -14.5625 6.1875 C-16.24959495 9.48833795 -16.7115001 12.32162627 -17 16 C-17.33 16 -17.66 16 -18 16 C-18.60012915 11.09894526 -18.66402859 7.0955291 -15.75 2.9375 C-11.44305157 -1.57751357 -5.77506164 -0.58871988 0 0 Z " fill="#394149" transform="translate(32,54)"/>
<path d="M0 0 C7.20759389 -0.61081304 7.20759389 -0.61081304 11 2.3125 C13 5 13 5 13 8 C12.01 7.67 11.02 7.34 10 7 C5.91405167 5.8134874 2.23657606 5.85134821 -2 6 C-1.67 5.34 -1.34 4.68 -1 4 C1.64 4 4.28 4 7 4 C7 3.01 7 2.02 7 1 C4.69 1 2.38 1 0 1 C0 0.67 0 0.34 0 0 Z " fill="#0C52A7" transform="translate(24,47)"/>
<path d="M0 0 C2.0625 0.6875 2.0625 0.6875 5.0625 2.6875 C4.375 4.625 4.375 4.625 3.0625 6.6875 C0.4375 7.4375 0.4375 7.4375 -1.9375 7.6875 C-3.3981285 5.04011084 -3.9375 3.79301666 -3.9375 0.6875 C-1.9375 -0.3125 -1.9375 -0.3125 0 0 Z " fill="#032A7D" transform="translate(10.9375,54.3125)"/>
<path d="M0 0 C0 0.66 0 1.32 0 2 C1.65 2 3.3 2 5 2 C5 2.33 5 2.66 5 3 C1.89591193 3.05807043 -1.2080364 3.09361914 -4.3125 3.125 C-5.63411133 3.15013672 -5.63411133 3.15013672 -6.98242188 3.17578125 C-7.82998047 3.18222656 -8.67753906 3.18867187 -9.55078125 3.1953125 C-10.33106689 3.20578613 -11.11135254 3.21625977 -11.9152832 3.22705078 C-14 3 -14 3 -17 1 C-14.91835982 0.63601378 -12.83459438 0.28416713 -10.75 -0.0625 C-9.00976562 -0.35833984 -9.00976562 -0.35833984 -7.234375 -0.66015625 C-4.37477376 -0.9606216 -2.66674071 -0.9439206 0 0 Z " fill="#384954" transform="translate(83,33)"/>
<path d="M0 0 C4.6875 0.78125 4.6875 0.78125 9.375 1.5625 C10.674375 1.7790625 10.674375 1.7790625 12 2 C12 2.33 12 2.66 12 3 C9.94921875 3.22786458 7.8984375 3.45572917 5.84765625 3.68359375 C3.98859771 3.81886614 3.98859771 3.81886614 3 5 C1.31391034 5.07205511 -0.37500659 5.08386068 -2.0625 5.0625 C-2.98160156 5.05347656 -3.90070312 5.04445313 -4.84765625 5.03515625 C-5.55792969 5.02355469 -6.26820312 5.01195312 -7 5 C-7 4.34 -7 3.68 -7 3 C-3.535 2.505 -3.535 2.505 0 2 C0 1.34 0 0.68 0 0 Z " fill="#B0C9DE" transform="translate(49,32)"/>
<path d="M0 0 C1.50433594 0.01353516 1.50433594 0.01353516 3.0390625 0.02734375 C3.80992187 0.03894531 4.58078125 0.05054688 5.375 0.0625 C5.045 0.7225 4.715 1.3825 4.375 2.0625 C2.1953125 2.66015625 2.1953125 2.66015625 -0.5 3.125 C-3.3358844 3.62520702 -5.88567849 4.14939283 -8.625 5.0625 C-9.83382096 7.06266466 -9.83382096 7.06266466 -10.625 9.0625 C-10.955 8.0725 -11.285 7.0825 -11.625 6.0625 C-8.03516479 0.86342832 -6.17796728 -0.07183683 0 0 Z " fill="#434959" transform="translate(125.625,53.9375)"/>
<path d="M0 0 C0.33 0.99 0.66 1.98 1 3 C-1.12282669 4.00460531 -3.24833021 5.00355602 -5.375 6 C-7.15003906 6.8353125 -7.15003906 6.8353125 -8.9609375 7.6875 C-12 9 -12 9 -14 9 C-13.34 7.35 -12.68 5.7 -12 4 C-10.948125 3.896875 -9.89625 3.79375 -8.8125 3.6875 C-5.12569246 3.02266585 -3.03361401 2.11433704 0 0 Z " fill="#E3F4F8" transform="translate(48,20)"/>
<path d="M0 0 C1.8125 0.1875 1.8125 0.1875 4 1 C5.01866229 2.65532623 6.01810813 4.32260138 7 6 C9.06700655 7.32793606 9.06700655 7.32793606 11 8 C11 8.66 11 9.32 11 10 C7.65626525 9.44271087 4.96687001 8.64826111 2 7 C2 6.34 2 5.68 2 5 C1.34 5 0.68 5 0 5 C0 3.35 0 1.7 0 0 Z " fill="#071856" transform="translate(43,64)"/>
<path d="M0 0 C-1.52994792 1.23697917 -3.05989583 2.47395833 -4.58984375 3.7109375 C-6.13266437 4.9666391 -6.13266437 4.9666391 -7 7 C-8.65 7 -10.3 7 -12 7 C-11.02629214 3.39728091 -10.3100846 2.20222909 -7.125 0.125 C-4.03945364 -0.98579669 -2.94961915 -1.24791579 0 0 Z " fill="#6C9DD7" transform="translate(49,29)"/>
<path d="M0 0 C1.32 0.33 2.64 0.66 4 1 C3.1875 4.4375 3.1875 4.4375 2 8 C-0.75078884 8.91692961 -2.35948913 9.10886083 -5.1875 9.0625 C-7.0746875 9.0315625 -7.0746875 9.0315625 -9 9 C-8.67 8.34 -8.34 7.68 -8 7 C-5.6859378 6.26924352 -3.35171131 5.59861742 -1 5 C-0.67 3.35 -0.34 1.7 0 0 Z " fill="#5D93CF" transform="translate(77,25)"/>
<path d="M0 0 C0.66 0 1.32 0 2 0 C2.66 3.63 3.32 7.26 4 11 C1.36 10.34 -1.28 9.68 -4 9 C-2.94124926 5.59687262 -1.99097846 2.98646769 0 0 Z " fill="#CFE8F4" transform="translate(134,35)"/>
<path d="M0 0 C2.31 0 4.62 0 7 0 C6.67 2.31 6.34 4.62 6 7 C4.02 7 2.04 7 0 7 C0 4.69 0 2.38 0 0 Z " fill="#91B6ED" transform="translate(89,25)"/>
<path d="M0 0 C0.99 0 1.98 0 3 0 C2.0114653 2.69600373 1.34022364 3.80558649 -1.1875 5.25 C-4.54230653 6.14461507 -7.54297098 6.13556977 -11 6 C-10.67 5.01 -10.34 4.02 -10 3 C-7.96875 2.3046875 -7.96875 2.3046875 -5.5 1.875 C-2.46069634 1.52112584 -2.46069634 1.52112584 0 0 Z " fill="#29292A" transform="translate(34,76)"/>
<path d="M0 0 C1.67542976 0.28604898 3.34385343 0.61781233 5 1 C5.25 3.25 5.25 3.25 5 6 C3 8.3125 3 8.3125 1 10 C0.01 9.67 -0.98 9.34 -2 9 C-1.34 8.67 -0.68 8.34 0 8 C-0.33 7.34 -0.66 6.68 -1 6 C-1.125 3.4375 -1.125 3.4375 -1 1 C-0.67 0.67 -0.34 0.34 0 0 Z " fill="#B5D5E7" transform="translate(99,61)"/>
<path d="M0 0 C3.08315385 -0.08733513 6.16598827 -0.14050127 9.25 -0.1875 C10.12269531 -0.21263672 10.99539062 -0.23777344 11.89453125 -0.26367188 C18.41598332 -0.33834499 18.41598332 -0.33834499 21.609375 1.51171875 C22.06828125 2.00285156 22.5271875 2.49398438 23 3 C20.25061193 4.05745695 19.11926223 4.04112491 16.28125 3.0625 C12.80619308 1.93724347 9.76327456 1.5977515 6.125 1.375 C4.97257812 1.30023437 3.82015625 1.22546875 2.6328125 1.1484375 C1.32957031 1.07496094 1.32957031 1.07496094 0 1 C0 0.67 0 0.34 0 0 Z " fill="#393E3C" transform="translate(93,16)"/>
<path d="M0 0 C1.50433594 0.01353516 1.50433594 0.01353516 3.0390625 0.02734375 C3.80992188 0.03894531 4.58078125 0.05054688 5.375 0.0625 C5.375 0.3925 5.375 0.7225 5.375 1.0625 C4.57835938 1.17207031 3.78171875 1.28164063 2.9609375 1.39453125 C-2.8537985 2.26461948 -7.38713702 3.31262194 -12.625 6.0625 C-15 5.75 -15 5.75 -16.625 5.0625 C-11 1.0625 -11 1.0625 -7.625 1.0625 C-4.98041621 -0.25979189 -2.94738699 -0.03427194 0 0 Z " fill="#021E63" transform="translate(25.625,45.9375)"/>
<path d="M0 0 C0 0.66 0 1.32 0 2 C1.65 2 3.3 2 5 2 C5 2.33 5 2.66 5 3 C-3.415 3.495 -3.415 3.495 -12 4 C-12 3.34 -12 2.68 -12 2 C-7.8803623 0.70756464 -4.33168317 -0.26252625 0 0 Z " fill="#606F76" transform="translate(76,16)"/>
<path d="M0 0 C2.5 0.1875 2.5 0.1875 5 1 C5.66 1.99 6.32 2.98 7 4 C6 5 6 5 4.15234375 5.09765625 C2.1015625 5.06510417 0.05078125 5.03255208 -2 5 C-2 2 -2 2 0 0 Z " fill="#B5BCC0" transform="translate(124,71)"/>
<path d="M0 0 C1.2065625 0.0309375 1.2065625 0.0309375 2.4375 0.0625 C3.0975 1.3825 3.7575 2.7025 4.4375 4.0625 C3.4375 5.0625 3.4375 5.0625 -0.125 5.125 C-1.259375 5.104375 -2.39375 5.08375 -3.5625 5.0625 C-3.5625 0.08689024 -3.5625 0.08689024 0 0 Z " fill="#B7BDC2" transform="translate(26.5625,70.9375)"/>
<path d="M0 0 C0.66 0 1.32 0 2 0 C3.125 6.75 3.125 6.75 2 9 C0.68 8.34 -0.64 7.68 -2 7 C-2.125 4.625 -2.125 4.625 -2 2 C-1.34 1.34 -0.68 0.68 0 0 Z " fill="#ABAFB4" transform="translate(132,63)"/>
<path d="M0 0 C1.32 0.66 2.64 1.32 4 2 C4 3.65 4 5.3 4 7 C2.02 7.99 2.02 7.99 0 9 C-1.125 2.25 -1.125 2.25 0 0 Z " fill="#B4BAC0" transform="translate(118,63)"/>
<path d="M0 0 C1.32 0.66 2.64 1.32 4 2 C4 3.65 4 5.3 4 7 C2.02 7.99 2.02 7.99 0 9 C-1 8 -1 8 -1.125 4.5 C-1 1 -1 1 0 0 Z " fill="#B6BFC1" transform="translate(19,63)"/>
<path d="M0 0 C0 0.33 0 0.66 0 1 C1.65 1.33 3.3 1.66 5 2 C5 2.33 5 2.66 5 3 C0.05 3 -4.9 3 -10 3 C-10 2.34 -10 1.68 -10 1 C-6.78548731 -0.60725635 -3.56387464 -0.05748185 0 0 Z " fill="#2E3A44" transform="translate(109,31)"/>
<path d="M0 0 C2.64 0 5.28 0 8 0 C7.625 1.9375 7.625 1.9375 7 4 C6.01 4.495 6.01 4.495 5 5 C2.375 4.0625 2.375 4.0625 0 3 C0 2.01 0 1.02 0 0 Z " fill="#B8BCC1" transform="translate(23,59)"/>
<path d="M0 0 C-0.66 0 -1.32 0 -2 0 C-2 0.66 -2 1.32 -2 2 C-2.66 2 -3.32 2 -4 2 C-4 2.66 -4 3.32 -4 4 C-4.99 4.33 -5.98 4.66 -7 5 C-7.33 4.34 -7.66 3.68 -8 3 C-9.97536745 3.34786708 -9.97536745 3.34786708 -12 4 C-12.33 4.66 -12.66 5.32 -13 6 C-13.66 5.34 -14.32 4.68 -15 4 C-13.06767179 3.13419713 -11.12892806 2.28270059 -9.1875 1.4375 C-8.10855469 0.96183594 -7.02960937 0.48617188 -5.91796875 -0.00390625 C-3 -1 -3 -1 0 0 Z " fill="#AAB9BE" transform="translate(56,18)"/>
<path d="M0 0 C2 3 2 3 3 5 C3.99 5 4.98 5 6 5 C6 6.32 6 7.64 6 9 C4.68 9.33 3.36 9.66 2 10 C-1.07692308 5.69230769 -1.07692308 5.69230769 -0.6875 2.1875 C-0.460625 1.465625 -0.23375 0.74375 0 0 Z " fill="#6C7E87" transform="translate(16,66)"/>
<path d="M0 0 C2.31 0 4.62 0 7 0 C7 0.99 7 1.98 7 3 C4 5 4 5 1.8125 4.625 C1.214375 4.41875 0.61625 4.2125 0 4 C0 2.68 0 1.36 0 0 Z " fill="#B6BEC1" transform="translate(123,59)"/>
<path d="M0 0 C1.65 1.65 3.3 3.3 5 5 C5.33 4.34 5.66 3.68 6 3 C6.33 4.65 6.66 6.3 7 8 C6.34 7.67 5.68 7.34 5 7 C4.67 9.31 4.34 11.62 4 14 C2.30566082 10.9530371 1.50532888 8.17178534 0.875 4.75 C0.70742187 3.85796875 0.53984375 2.9659375 0.3671875 2.046875 C0.18542969 1.03367187 0.18542969 1.03367187 0 0 Z " fill="#59707C" transform="translate(134,29)"/>
<path d="M0 0 C0.680625 0.07863281 1.36125 0.15726563 2.0625 0.23828125 C4 0.6875 4 0.6875 7 2.6875 C2.38 2.6875 -2.24 2.6875 -7 2.6875 C-7 2.0275 -7 1.3675 -7 0.6875 C-4.09583903 -0.28055366 -2.92345144 -0.37096827 0 0 Z " fill="#3F5463" transform="translate(65,34.3125)"/>
<path d="M0 0 C0.33 0 0.66 0 1 0 C1.66 2.97 2.32 5.94 3 9 C-0.67420866 8.69381595 -1.78135513 8.24228216 -4.3125 5.4375 C-4.869375 4.633125 -5.42625 3.82875 -6 3 C-5.67 2.34 -5.34 1.68 -5 1 C-4.34 1.66 -3.68 2.32 -3 3 C-2.01 3.66 -1.02 4.32 0 5 C0 3.35 0 1.7 0 0 Z " fill="#060D3C" transform="translate(11,66)"/>
<path d="M0 0 C0.66 0.33 1.32 0.66 2 1 C1 3 0 5 -1 7 C-3.32156597 7.40729228 -5.6568787 7.74438677 -8 8 C-5.33333333 5.33333333 -2.66666667 2.66666667 0 0 Z " fill="#3F5C71" transform="translate(50,27)"/>
<path d="M0 0 C0.66 0.66 1.32 1.32 2 2 C2.99 2 3.98 2 5 2 C4.42655063 4.86724686 4.1385485 5.8614515 2 8 C1.01 8 0.02 8 -1 8 C-1.33 7.01 -1.66 6.02 -2 5 C-1.34 4.67 -0.68 4.34 0 4 C0 2.68 0 1.36 0 0 Z " fill="#A5C7D8" transform="translate(48,59)"/>
<path d="M0 0 C1.9375 0.3125 1.9375 0.3125 4 1 C4.33 1.99 4.66 2.98 5 4 C4.67 4.66 4.34 5.32 4 6 C1.69 6 -0.62 6 -3 6 C-2.505 5.38125 -2.01 4.7625 -1.5 4.125 C0.19222773 2.16119096 0.19222773 2.16119096 0 0 Z " fill="#0B54AB" transform="translate(132,47)"/>
<path d="M0 0 C0.33 0 0.66 0 1 0 C1.66 2.64 2.32 5.28 3 8 C-0.01490557 8 -1.86864114 7.48047265 -4.6875 6.5 C-5.49574219 6.2215625 -6.30398437 5.943125 -7.13671875 5.65625 C-8.05904297 5.33140625 -8.05904297 5.33140625 -9 5 C-5.52176885 3.84058962 -3.54104422 4.29179116 0 5 C0 3.35 0 1.7 0 0 Z " fill="#1D2E5C" transform="translate(142,41)"/>
<path d="M0 0 C2.97 0 5.94 0 9 0 C8 3 8 3 5.0625 4.75 C3.5465625 5.36875 3.5465625 5.36875 2 6 C1.34 5.67 0.68 5.34 0 5 C0.66 4.01 1.32 3.02 2 2 C1.34 1.34 0.68 0.68 0 0 Z " fill="#CAE2EA" transform="translate(30,39)"/>
<path d="M0 0 C0.52078125 0.64453125 1.0415625 1.2890625 1.578125 1.953125 C4.70975418 4.59985676 6.69773096 4.58790924 10.75 4.75 C12.50570312 4.83507812 12.50570312 4.83507812 14.296875 4.921875 C15.18890625 4.94765625 16.0809375 4.9734375 17 5 C17 5.33 17 5.66 17 6 C14.75059705 6.08119503 12.50035129 6.13927819 10.25 6.1875 C8.99703125 6.22230469 7.7440625 6.25710937 6.453125 6.29296875 C2.85890643 5.98802939 1.55274874 5.45605371 -1 3 C-0.67 2.01 -0.34 1.02 0 0 Z " fill="#C6E2F5" transform="translate(49,66)"/>
<path d="M0 0 C2.97 0.495 2.97 0.495 6 1 C6 1.66 6 2.32 6 3 C4.2984375 3.433125 4.2984375 3.433125 2.5625 3.875 C1.386875 4.24625 0.21125 4.6175 -1 5 C-1.33 5.66 -1.66 6.32 -2 7 C-2.66 7 -3.32 7 -4 7 C-2.79618552 4.50638429 -1.54571278 2.31856917 0 0 Z " fill="#97B9E9" transform="translate(54,26)"/>
<path d="M0 0 C-0.625 1.875 -0.625 1.875 -2 4 C-5.125 5.25 -5.125 5.25 -8 6 C-6.15596224 0.86303767 -5.73213298 0 0 0 Z " fill="#C7D8DB" transform="translate(33,28)"/>
<path d="M0 0 C0.33 0 0.66 0 1 0 C1.06058594 0.61488281 1.12117187 1.22976562 1.18359375 1.86328125 C1.26738281 2.67152344 1.35117188 3.47976562 1.4375 4.3125 C1.51871094 5.11300781 1.59992187 5.91351563 1.68359375 6.73828125 C1.95265693 9.16087179 1.95265693 9.16087179 3 12 C2.01 12.33 1.02 12.66 0 13 C-1.18306728 10.63386544 -1.13354608 9.13219264 -1.125 6.5 C-1.12757812 5.7059375 -1.13015625 4.911875 -1.1328125 4.09375 C-1 2 -1 2 0 0 Z " fill="#192238" transform="translate(13,61)"/>
<path d="M0 0 C1.32 0.99 2.64 1.98 4 3 C3.67 4.65 3.34 6.3 3 8 C1.68 7.67 0.36 7.34 -1 7 C-0.67 4.69 -0.34 2.38 0 0 Z " fill="#031860" transform="translate(8,63)"/>
<path d="M0 0 C0.33 0 0.66 0 1 0 C1.04254356 1.99954746 1.04080783 4.00041636 1 6 C0 7 0 7 -2.06640625 7.09765625 C-2.89011719 7.08605469 -3.71382813 7.07445312 -4.5625 7.0625 C-5.38878906 7.05347656 -6.21507813 7.04445313 -7.06640625 7.03515625 C-7.70449219 7.02355469 -8.34257813 7.01195312 -9 7 C-8.67 6.34 -8.34 5.68 -8 5 C-6.845 4.690625 -5.69 4.38125 -4.5 4.0625 C-3.345 3.711875 -2.19 3.36125 -1 3 C-0.67 2.01 -0.34 1.02 0 0 Z " fill="#1C2830" transform="translate(117,26)"/>
<path d="M0 0 C0.66 0.66 1.32 1.32 2 2 C-2.36200187 4.44697666 -6.02693484 5.50269348 -11 6 C-10.34 5.67 -9.68 5.34 -9 5 C-9 4.34 -9 3.68 -9 3 C-8.071875 2.87625 -7.14375 2.7525 -6.1875 2.625 C-2.86074765 2.18466918 -2.86074765 2.18466918 0 0 Z " fill="#E2F3F6" transform="translate(63,15)"/>
<path d="M0 0 C1.9375 0.75 1.9375 0.75 4 2 C4.75 4.125 4.75 4.125 5 6 C4.01 6 3.02 6 2 6 C2 5.34 2 4.68 2 4 C0.35 4.66 -1.3 5.32 -3 6 C-2.01 4.02 -1.02 2.04 0 0 Z " fill="#8D9DA7" transform="translate(132,59)"/>
<path d="M0 0 C1.98 0 3.96 0 6 0 C5.67 1.98 5.34 3.96 5 6 C3.0625 5.25 3.0625 5.25 1 4 C0.25 1.875 0.25 1.875 0 0 Z " fill="#092163" transform="translate(138,60)"/>
<path d="M0 0 C-0.83144531 0.38091797 -0.83144531 0.38091797 -1.6796875 0.76953125 C-2.40414063 1.11371094 -3.12859375 1.45789062 -3.875 1.8125 C-4.95394531 2.31716797 -4.95394531 2.31716797 -6.0546875 2.83203125 C-8.30542806 3.99467097 -8.30542806 3.99467097 -10 7 C-10.33 5.68 -10.66 4.36 -11 3 C-4.03571429 -1.41964286 -4.03571429 -1.41964286 0 0 Z " fill="#0D52A7" transform="translate(23,49)"/>
<path d="M0 0 C0.33 0 0.66 0 1 0 C1 3.63 1 7.26 1 11 C0.34 11 -0.32 11 -1 11 C-1 11.66 -1 12.32 -1 13 C-2.65 13.66 -4.3 14.32 -6 15 C-5.25 13.0625 -5.25 13.0625 -4 11 C-2.68 10.67 -1.36 10.34 0 10 C0 6.7 0 3.4 0 0 Z " fill="#A4B8C3" transform="translate(119,32)"/>
<path d="M0 0 C1.9375 0.375 1.9375 0.375 4 1 C4.33 1.66 4.66 2.32 5 3 C6.89533342 3.46523063 6.89533342 3.46523063 9.0625 3.625 C10.361875 3.74875 11.66125 3.8725 13 4 C13 4.33 13 4.66 13 5 C11.39667209 5.08121924 9.79215974 5.13929134 8.1875 5.1875 C7.29417969 5.22230469 6.40085937 5.25710937 5.48046875 5.29296875 C3 5 3 5 1.17578125 3.61328125 C0 2 0 2 0 0 Z " fill="#C7EBFC" transform="translate(51,65)"/>
<path d="M0 0 C2.0625 0.4375 2.0625 0.4375 4 1 C3.67 2.32 3.34 3.64 3 5 C1.02 5 -0.96 5 -3 5 C-1.125 1.125 -1.125 1.125 0 0 Z " fill="#BBD5F5" transform="translate(58,22)"/>
<path d="M0 0 C2 2 2 2 2.3125 4.375 C1.94561394 7.45684293 1.13570963 8.78214769 -1 11 C-1.66 11 -2.32 11 -3 11 C-2.690625 10.29875 -2.38125 9.5975 -2.0625 8.875 C-0.96697322 5.91063343 -0.43577008 3.12301892 0 0 Z " fill="#48484E" transform="translate(38,66)"/>
<path d="M0 0 C0.33 1.32 0.66 2.64 1 4 C1.66 4 2.32 4 3 4 C2.75 5.875 2.75 5.875 2 8 C0.02 8.99 0.02 8.99 -2 10 C-1.34 6.7 -0.68 3.4 0 0 Z " fill="#08112D" transform="translate(140,65)"/>
<path d="M0 0 C0.99 0.33 1.98 0.66 3 1 C3 2.65 3 4.3 3 6 C1.0625 5.6875 1.0625 5.6875 -1 5 C-1.33 4.01 -1.66 3.02 -2 2 C-1.34 1.34 -0.68 0.68 0 0 Z " fill="#BCC1C7" transform="translate(32,63)"/>
<path d="M0 0 C0.66 0.33 1.32 0.66 2 1 C2 1.99 2 2.98 2 4 C-0.97 4.66 -3.94 5.32 -7 6 C-4.74259377 3.66475218 -2.7194239 1.81294927 0 0 Z " fill="#A7B2B8" transform="translate(24,31)"/>
<path d="M0 0 C3.3 0 6.6 0 10 0 C10 0.66 10 1.32 10 2 C10.99 2.33 11.98 2.66 13 3 C8.17639811 3.19294408 4.50353262 2.75747614 0 1 C0 0.67 0 0.34 0 0 Z " fill="#42505C" transform="translate(89,32)"/>
<path d="M0 0 C5.53846154 -0.36923077 5.53846154 -0.36923077 7.875 1.5 C8.24625 1.995 8.6175 2.49 9 3 C5.52176885 4.15941038 3.54104422 3.70820884 0 3 C0 2.01 0 1.02 0 0 Z " fill="#9FACB6" transform="translate(124,56)"/>
<path d="M0 0 C1.65 0 3.3 0 5 0 C4.25 1.9375 4.25 1.9375 3 4 C0.875 4.75 0.875 4.75 -1 5 C-0.67 3.35 -0.34 1.7 0 0 Z " fill="#C2D5D9" transform="translate(8,44)"/>
<path d="M0 0 C0.33 0 0.66 0 1 0 C1.125 3.375 1.125 3.375 1 7 C0.34 7.66 -0.32 8.32 -1 9 C-1 8.34 -1 7.68 -1 7 C-1.66 7 -2.32 7 -3 7 C-3 6.01 -3 5.02 -3 4 C-2.34 4 -1.68 4 -1 4 C-0.67 2.68 -0.34 1.36 0 0 Z " fill="#131C47" transform="translate(144,62)"/>
<path d="M0 0 C-2.64 0.99 -5.28 1.98 -8 3 C-8 2.01 -8 1.02 -8 0 C-4.63458162 -1.08174162 -3.70152678 -0.92538169 0 0 Z M-9 3 C-8.01 3.99 -7.02 4.98 -6 6 C-6.99 5.67 -7.98 5.34 -9 5 C-9 4.34 -9 3.68 -9 3 Z " fill="#A2C8E8" transform="translate(104,19)"/>
<path d="M0 0 C4.16138263 -0.08159574 7.9472484 0.01751476 12 1 C8.53076119 3.31282587 7.07794425 3.42478586 3 3 C1.125 1.5 1.125 1.5 0 0 Z " fill="#B8C8CD" transform="translate(117,13)"/>
<path d="M0 0 C1.32 0 2.64 0 4 0 C4 1.32 4 2.64 4 4 C2.35 4 0.7 4 -1 4 C-0.67 2.68 -0.34 1.36 0 0 Z " fill="#BDC3C9" transform="translate(25,65)"/>
<path d="M0 0 C2.31 0 4.62 0 7 0 C6.67 1.32 6.34 2.64 6 4 C4.68 4 3.36 4 2 4 C2 3.01 2 2.02 2 1 C1.34 0.67 0.68 0.34 0 0 Z " fill="#93A0AC" transform="translate(16,41)"/>
<path d="M0 0 C1.62752231 0.25523874 3.25203196 0.52974494 4.875 0.8125 C6.23238281 1.03873047 6.23238281 1.03873047 7.6171875 1.26953125 C10 2 10 2 12 5 C11.01 5.33 10.02 5.66 9 6 C8.34 5.01 7.68 4.02 7 3 C3.44327821 1.7811879 3.44327821 1.7811879 0 1 C0 0.67 0 0.34 0 0 Z " fill="#7BA9CB" transform="translate(104,18)"/>
<path d="M0 0 C0.1875 3.375 0.1875 3.375 0 7 C-0.99 7.66 -1.98 8.32 -3 9 C-3 6.36 -3 3.72 -3 1 C-1 0 -1 0 0 0 Z " fill="#89929E" transform="translate(18,62)"/>
<path d="M0 0 C2 1.3125 2 1.3125 4 3 C4 3.99 4 4.98 4 6 C2.35 5.67 0.7 5.34 -1 5 C-0.67 3.35 -0.34 1.7 0 0 Z " fill="#698694" transform="translate(138,40)"/>
<path d="M0 0 C2.15377564 2.62198774 3.40072174 4.64404172 4 8 C3.01 7.67 2.02 7.34 1 7 C-0.1875 3.9375 -0.1875 3.9375 -1 1 C-0.67 0.67 -0.34 0.34 0 0 Z " fill="#8BA4B2" transform="translate(135,26)"/>
<path d="M0 0 C0.66 0 1.32 0 2 0 C1.50168276 3.68754757 0.89932357 5.60490662 -2 8 C-2 4.23312136 -1.76462683 3.08809695 0 0 Z " fill="#596E77" transform="translate(54,21)"/>
<path d="M0 0 C0.33 0 0.66 0 1 0 C1.36923077 6.52307692 1.36923077 6.52307692 -0.5 8.9375 C-0.995 9.288125 -1.49 9.63875 -2 10 C-1.54177532 6.53058454 -1.10868317 3.32604951 0 0 Z " fill="#50545F" transform="translate(139,64)"/>
<path d="M0 0 C1.32 0.66 2.64 1.32 4 2 C3.01 2.495 3.01 2.495 2 3 C2 3.66 2 4.32 2 5 C1.01 5.33 0.02 5.66 -1 6 C-0.67 4.02 -0.34 2.04 0 0 Z " fill="#C0CACC" transform="translate(118,63)"/>
<path d="M0 0 C0.66 0 1.32 0 2 0 C2.33 1.65 2.66 3.3 3 5 C1.68 5 0.36 5 -1 5 C-1.33 4.01 -1.66 3.02 -2 2 C-1.34 1.34 -0.68 0.68 0 0 Z " fill="#BDC4CB" transform="translate(132,63)"/>
<path d="M0 0 C1.32 0 2.64 0 4 0 C3.67 1.32 3.34 2.64 3 4 C1.68 3.67 0.36 3.34 -1 3 C-0.67 2.01 -0.34 1.02 0 0 Z " fill="#C1C8CD" transform="translate(124,65)"/>
<path d="M0 0 C0.66 0 1.32 0 2 0 C1.50168276 3.68754757 0.89932357 5.60490662 -2 8 C-3 5 -3 5 -1.6875 2.3125 C-1.130625 1.549375 -0.57375 0.78625 0 0 Z " fill="#788895" transform="translate(31,59)"/>
<path d="M0 0 C0.66 0.33 1.32 0.66 2 1 C-0.475 4.465 -0.475 4.465 -3 8 C-3.33 7.01 -3.66 6.02 -4 5 C-2.0625 2.3125 -2.0625 2.3125 0 0 Z " fill="#373D50" transform="translate(118,55)"/>
<path d="M0 0 C2.31 0.33 4.62 0.66 7 1 C7 1.99 7 2.98 7 4 C6.01 4 5.02 4 4 4 C4 3.34 4 2.68 4 2 C2.02 2.33 0.04 2.66 -2 3 C-1.34 2.01 -0.68 1.02 0 0 Z " fill="#7D7372" transform="translate(11,41)"/>
<path d="M0 0 C0.66 0.33 1.32 0.66 2 1 C-0.06756277 3.7972908 -1.14440371 4.02692273 -4.6875 4.6875 C-5.780625 4.790625 -6.87375 4.89375 -8 5 C-6.35197949 1.70395897 -3.32254422 1.22409524 0 0 Z " fill="#95B5D4" transform="translate(51,24)"/>
<path d="M0 0 C0.99 0.33 1.98 0.66 3 1 C2.01 1.66 1.02 2.32 0 3 C0 3.66 0 4.32 0 5 C-1.32 5.33 -2.64 5.66 -4 6 C-2.25 1.125 -2.25 1.125 0 0 Z " fill="#B7C6CB" transform="translate(38,23)"/>
<path d="M0 0 C1.98 0.495 1.98 0.495 4 1 C3.67 2.32 3.34 3.64 3 5 C1.68 4.67 0.36 4.34 -1 4 C-0.34 4 0.32 4 1 4 C0.67 2.68 0.34 1.36 0 0 Z " fill="#7EB9EA" transform="translate(105,20)"/>
</svg>
